<svg width="10" height="10" viewBox="0 0 10 10" fill="none" xmlns="http://www.w3.org/2000/svg">
<path d="M5.60218 10C5.4066 10.0001 5.21539 9.94149 5.05275 9.83161C4.8901 9.72174 4.76333 9.56553 4.68847 9.38275C4.61361 9.19997 4.59403 8.99883 4.63221 8.80479C4.67039 8.61075 4.76462 8.43253 4.90296 8.29268L7.92526 5.23604C7.95594 5.20508 7.98029 5.16829 7.9969 5.1278C8.01351 5.0873 8.02207 5.04389 8.02207 5.00004C8.02207 4.9562 8.01351 4.91278 7.9969 4.87229C7.98029 4.83179 7.95594 4.79501 7.92526 4.76404L4.90559 1.7074C4.72015 1.5199 4.61593 1.26555 4.61587 1.00031C4.6158 0.735075 4.7199 0.480677 4.90526 0.293082C5.09062 0.105487 5.34206 6.25394e-05 5.60426 2.78154e-08C5.86646 -6.24838e-05 6.11794 0.105242 6.30339 0.292749L9.32569 3.35005C9.75751 3.78807 10 4.38144 10 5.00004C10 5.61865 9.75751 6.21201 9.32569 6.65003L6.30339 9.70733C6.21132 9.80042 6.10197 9.87419 5.98164 9.92441C5.86131 9.97463 5.73236 10.0003 5.60218 10Z" fill="white"/>
<path d="M0.98899 10C0.79341 10.0001 0.602199 9.94149 0.439551 9.83161C0.276904 9.72174 0.150131 9.56553 0.0752736 9.38275C0.000416296 9.19997 -0.0191606 8.99883 0.0190196 8.80479C0.0571998 8.61075 0.151421 8.43253 0.289762 8.29268L3.54734 5.00004L0.292398 1.7074C0.106951 1.5199 0.00273321 1.26555 0.00267142 1.00031C0.00260962 0.735075 0.106709 0.480677 0.292068 0.293082C0.477428 0.105487 0.728864 6.25394e-05 0.991064 2.78154e-08C1.25326 -6.24838e-05 1.50475 0.105242 1.6902 0.292749L5.64436 4.29271C5.73622 4.38558 5.8091 4.49585 5.85882 4.61721C5.90853 4.73858 5.93412 4.86867 5.93412 5.00004C5.93412 5.13142 5.90853 5.2615 5.85882 5.38287C5.8091 5.50424 5.73622 5.6145 5.64436 5.70737L1.6902 9.70733C1.59812 9.80042 1.48878 9.87419 1.36845 9.92441C1.24812 9.97463 1.11916 10.0003 0.98899 10Z" fill="white"/>
</svg>