<svg width="11" height="7" viewBox="0 0 11 7" fill="none" xmlns="http://www.w3.org/2000/svg">
<path d="M10.3544 0.903546C10.2553 0.801366 10.1377 0.720308 10.0082 0.665005C9.87878 0.609702 9.74003 0.581238 9.59989 0.581238C9.45976 0.581238 9.321 0.609702 9.19155 0.665005C9.06209 0.720308 8.94448 0.801366 8.84542 0.903546L5.58433 4.26459C5.51766 4.3333 5.42724 4.3719 5.33296 4.3719C5.23868 4.3719 5.14826 4.3333 5.08159 4.26459L1.82121 0.903546C1.6212 0.697269 1.3499 0.581345 1.06699 0.581276C0.784071 0.581208 0.512716 0.696999 0.312617 0.903179C0.112518 1.10936 6.671e-05 1.38904 2.96713e-08 1.68069C-6.66507e-05 1.97234 0.112257 2.25207 0.312262 2.45835L3.57335 5.82012C3.80446 6.05839 4.07884 6.2474 4.38082 6.37636C4.6828 6.50531 5.00645 6.57168 5.33331 6.57168C5.66018 6.57168 5.98383 6.50531 6.28581 6.37636C6.58779 6.2474 6.86217 6.05839 7.09328 5.82012L10.3544 2.45835C10.5543 2.25215 10.6667 1.97251 10.6667 1.68095C10.6667 1.38938 10.5543 1.10975 10.3544 0.903546Z" fill="#001823"/>
</svg>
