<svg width="38" height="38" viewBox="0 0 38 38" fill="none" xmlns="http://www.w3.org/2000/svg">
<path d="M17.2727 14.6818V16.4091H15.5454V19H17.2727V26.7727H20.7272V19H23.0245L23.3181 16.4091H20.7272V14.8977C20.7272 14.1982 20.7963 13.8268 21.8758 13.8268H23.3181V11.2272H21.0036C18.24 11.2273 17.2727 12.5227 17.2727 14.6818Z" fill="white"/>
<path d="M19 0C8.50658 0 0 8.50658 0 19C0 29.4934 8.50658 38 19 38C29.4934 38 38 29.4934 38 19C38 8.50658 29.4934 0 19 0ZM19 36.2727C9.46052 36.2727 1.72729 28.5395 1.72729 19C1.72729 9.46052 9.46052 1.72729 19 1.72729C28.5395 1.72729 36.2727 9.46052 36.2727 19C36.2727 28.5395 28.5395 36.2727 19 36.2727Z" fill="white"/>
</svg>