<svg width="19" height="17" viewBox="0 0 19 17" fill="none" xmlns="http://www.w3.org/2000/svg">
<path d="M13.6 2.55C13.6 2.04566 13.7496 1.55264 14.0297 1.1333C14.3099 0.713952 14.7082 0.387112 15.1742 0.194108C15.6401 0.00110489 16.1528 -0.0493936 16.6475 0.0489987C17.1421 0.147391 17.5965 0.390255 17.9531 0.746879C18.3097 1.1035 18.5526 1.55787 18.651 2.05252C18.7494 2.54717 18.6989 3.05989 18.5059 3.52584C18.3129 3.99179 17.986 4.39005 17.5667 4.67025C17.1474 4.95044 16.6543 5.1 16.15 5.1C15.4737 5.1 14.8251 4.83134 14.3469 4.35312C13.8687 3.8749 13.6 3.2263 13.6 2.55ZM0.85 3.4H11.05C11.2754 3.4 11.4916 3.31045 11.651 3.15104C11.8104 2.99163 11.9 2.77543 11.9 2.55C11.9 2.32457 11.8104 2.10837 11.651 1.94896C11.4916 1.78955 11.2754 1.7 11.05 1.7H0.85C0.624566 1.7 0.408365 1.78955 0.248959 1.94896C0.0895533 2.10837 0 2.32457 0 2.55C0 2.77543 0.0895533 2.99163 0.248959 3.15104C0.408365 3.31045 0.624566 3.4 0.85 3.4ZM5.95 5.95C5.4239 5.95148 4.91113 6.11565 4.48199 6.42C4.05286 6.72435 3.72837 7.15398 3.553 7.65H0.85C0.624566 7.65 0.408365 7.73955 0.248959 7.89896C0.0895533 8.05836 0 8.27456 0 8.5C0 8.72543 0.0895533 8.94163 0.248959 9.10104C0.408365 9.26044 0.624566 9.35 0.85 9.35H3.553C3.70893 9.79104 3.98319 10.1807 4.34575 10.4763C4.70831 10.7719 5.1452 10.9621 5.60861 11.0261C6.07202 11.09 6.54409 11.0252 6.97315 10.8388C7.40222 10.6525 7.77175 10.3516 8.04129 9.9693C8.31084 9.58696 8.47002 9.13785 8.50141 8.6711C8.5328 8.20436 8.43519 7.73797 8.21927 7.32298C8.00335 6.908 7.67743 6.5604 7.27719 6.31824C6.87694 6.07608 6.4178 5.94869 5.95 5.95ZM17.85 7.65H11.05C10.8246 7.65 10.6084 7.73955 10.449 7.89896C10.2896 8.05836 10.2 8.27456 10.2 8.5C10.2 8.72543 10.2896 8.94163 10.449 9.10104C10.6084 9.26044 10.8246 9.35 11.05 9.35H17.85C18.0754 9.35 18.2916 9.26044 18.451 9.10104C18.6104 8.94163 18.7 8.72543 18.7 8.5C18.7 8.27456 18.6104 8.05836 18.451 7.89896C18.2916 7.73955 18.0754 7.65 17.85 7.65ZM7.65 13.6H0.85C0.624566 13.6 0.408365 13.6895 0.248959 13.849C0.0895533 14.0084 0 14.2246 0 14.45C0 14.6754 0.0895533 14.8916 0.248959 15.051C0.408365 15.2104 0.624566 15.3 0.85 15.3H7.65C7.87543 15.3 8.09163 15.2104 8.25104 15.051C8.41045 14.8916 8.5 14.6754 8.5 14.45C8.5 14.2246 8.41045 14.0084 8.25104 13.849C8.09163 13.6895 7.87543 13.6 7.65 13.6ZM17.85 13.6H15.147C14.9465 13.0329 14.5519 12.5549 14.0331 12.2505C13.5142 11.9461 12.9045 11.835 12.3116 11.9367C11.7188 12.0384 11.1809 12.3465 10.7932 12.8064C10.4055 13.2663 10.1928 13.8485 10.1928 14.45C10.1928 15.0515 10.4055 15.6337 10.7932 16.0936C11.1809 16.5535 11.7188 16.8615 12.3116 16.9633C12.9045 17.065 13.5142 16.9538 14.0331 16.6495C14.5519 16.3451 14.9465 15.8671 15.147 15.3H17.85C18.0754 15.3 18.2916 15.2104 18.451 15.051C18.6104 14.8916 18.7 14.6754 18.7 14.45C18.7 14.2246 18.6104 14.0084 18.451 13.849C18.2916 13.6895 18.0754 13.6 17.85 13.6Z" fill="white"/>
</svg>