<svg width="417" height="420" viewBox="0 0 417 420" fill="none" xmlns="http://www.w3.org/2000/svg">
<path d="M218.455 376.747L320.047 373.163C337.963 378.999 344.412 399.338 346.801 418.96H210.981L218.455 376.747Z" fill="white"/>
<path d="M210.981 419.915C210.299 419.813 209.957 419.301 210.06 418.789L217.499 376.576C217.567 376.132 217.977 375.791 218.421 375.791L320.012 372.208C320.126 372.185 320.229 372.196 320.32 372.242C335.574 377.224 344.549 392.478 347.757 418.857C347.825 419.369 347.449 419.847 346.903 419.915C346.391 419.983 345.914 419.608 345.845 419.062C342.74 393.604 334.243 378.896 319.876 374.119L219.24 377.668L211.937 419.13C211.868 419.574 211.459 419.915 210.981 419.915Z" fill="black"/>
<path d="M267.459 242.053C260.941 215.605 245.994 191.479 248.861 162.779C251.352 137.424 259.542 119.337 243.639 95.4151C218.489 57.5699 170.235 42.111 126.281 46.3425C86.7299 50.1305 29.6378 74.1208 36.4288 122.443C38.6469 138.174 46.1546 150.153 40.4897 166.396C36.77 177.146 30.0131 186.565 24.0412 196.29C3.15631 230.075 -8.10513 271.025 6.84188 309.451C24.2801 354.258 73.182 376.883 119.217 382.275C163.274 387.462 209.411 379.203 240.193 345.078C261.009 321.975 272.168 290.375 270.223 259.389C269.848 253.485 268.858 247.718 267.459 242.053Z" fill="#77C574"/>
<path d="M215.588 365.349L214.769 395.516L340.829 396.062V389.851C400.003 422.372 438.633 385.551 400.003 323.647C367.72 271.879 361.031 244.646 297.114 242.735L264.763 241.404C229.784 240.381 218.796 247.069 202.962 263.245C193.953 272.459 182.623 286.45 173.102 282.014C161.806 276.724 112.358 279.796 118.603 330.336C128.568 410.94 198.662 410.053 215.588 365.349Z" fill="black"/>
<path d="M297.114 242.735L264.763 241.404C250.26 240.995 239.886 241.882 231.593 244.237C235.244 248.161 250.737 262.835 278.55 263.791C302.131 264.644 321.139 253.144 329.533 247.001C320.627 244.544 310.048 243.111 297.114 242.735Z" fill="white"/>
<path d="M273.158 183.391C285.409 190.114 300.8 185.575 307.522 173.324C314.245 161.039 309.706 145.648 297.455 138.959C285.17 132.237 269.78 136.741 263.091 149.027C256.368 161.312 260.873 176.702 273.158 183.391Z" fill="#77C574"/>
<path d="M62.842 140.12H143.174V220.451H62.842V140.12Z" fill="white"/>
<path d="M143.174 187.179L143.105 186.667C139.795 185.097 135.939 185.097 132.39 185.916C127.305 187.042 122.869 190.523 117.716 191.103C112.051 191.752 107.717 187.486 104.271 183.493C100.619 179.296 97.1724 175.371 92.0194 173.153C87.7196 171.31 82.942 170.696 78.3351 171.481C71.9536 172.539 66.3911 176.395 62.842 181.753V220.451H143.174V187.179Z" fill="black"/>
<path fill-rule="evenodd" clip-rule="evenodd" d="M143.174 221.407H62.842C62.296 221.407 61.8865 220.963 61.8865 220.451V140.12C61.8865 139.574 62.296 139.164 62.842 139.164H143.174C143.686 139.164 144.129 139.574 144.129 140.12V220.451C144.129 220.963 143.686 221.407 143.174 221.407ZM63.7975 219.496H142.218V141.075H63.7975V219.496Z" fill="black"/>
<path d="M134.847 162.711C134.847 169.331 129.489 174.689 122.869 174.689C116.249 174.689 110.891 169.331 110.891 162.711C110.891 156.09 116.249 150.733 122.869 150.733C129.489 150.733 134.847 156.09 134.847 162.711Z" fill="#B0BA66"/>
<path d="M216.748 44.9434C213.438 44.9434 210.23 45.2506 207.091 45.8648C198.867 19.827 174.501 0.955566 145.767 0.955566C116.59 0.955566 91.9511 20.4072 84.0681 47.0251C79.4953 45.6601 74.6153 44.9434 69.5989 44.9434C41.3087 44.9434 18.3422 67.8758 18.3422 96.2001C18.3422 124.524 41.3087 147.457 69.5989 147.457C88.7774 147.457 198.423 147.457 216.748 147.457C245.039 147.457 268.005 124.524 268.005 96.2001C268.005 67.8758 245.039 44.9434 216.748 44.9434Z" fill="white"/>
<path fill-rule="evenodd" clip-rule="evenodd" d="M216.748 148.412H69.5988C40.7968 148.412 17.3867 125.002 17.3867 96.2C17.3867 67.398 40.7968 43.9879 69.5988 43.9879C74.274 43.9879 78.9151 44.6021 83.4197 45.8307C87.4465 32.9653 95.5684 21.4309 106.352 13.2407C117.75 4.57283 131.4 0 145.767 0C159.929 0 173.375 4.47045 184.704 12.8653C195.556 20.9872 203.542 31.9757 207.739 44.7728C210.742 44.2268 213.745 43.9879 216.748 43.9879C245.516 43.9879 268.96 67.398 268.96 96.2C268.96 125.002 245.516 148.412 216.748 148.412ZM69.5988 45.8989C41.8547 45.8989 19.2977 68.4559 19.2977 96.2C19.2977 123.944 41.8547 146.501 69.5988 146.501H216.748C244.458 146.501 267.049 123.944 267.049 96.2C267.049 68.4559 244.458 45.8989 216.748 45.8989C213.609 45.8989 210.435 46.206 207.296 46.7862C206.818 46.8886 206.34 46.6156 206.204 46.1378C197.809 19.6905 173.545 1.91103 145.767 1.91103C117.887 1.91103 92.8724 20.5777 84.9894 47.2981C84.8529 47.81 84.3069 48.083 83.795 47.9464C79.1881 46.5814 74.4105 45.8989 69.5988 45.8989Z" fill="black"/>
<path d="M128.431 87.1225V37.1968H157.916V87.1225H177.675L160.441 110.43L143.174 133.738L125.906 110.43L108.673 87.1225H128.431Z" fill="#B0BA66"/>
<path fill-rule="evenodd" clip-rule="evenodd" d="M78.4374 287.508C71.544 287.508 65.9474 281.946 65.9474 275.052C65.9474 268.193 71.544 262.596 78.4374 262.596C85.2966 262.596 90.8932 268.193 90.8932 275.052C90.8932 281.946 85.2966 287.508 78.4374 287.508ZM78.4374 264.507C72.6019 264.507 67.8926 269.251 67.8926 275.052C67.8926 280.888 72.6019 285.597 78.4374 285.597C84.2387 285.597 88.9822 280.888 88.9822 275.052C88.9822 269.251 84.2387 264.507 78.4374 264.507Z" fill="black"/>
<path fill-rule="evenodd" clip-rule="evenodd" d="M381.302 402.887C369.665 402.887 356.049 399.065 341.785 391.455V396.062C341.785 396.3 341.682 396.539 341.477 396.744C341.307 396.915 341.068 397.017 340.829 397.017C340.795 397.017 214.769 396.471 214.769 396.471C214.496 396.471 214.257 396.369 214.087 396.164C213.916 395.993 213.814 395.754 213.814 395.481L214.496 370.263C210.435 378.555 204.361 385.312 196.717 389.987C188.117 395.277 177.879 397.563 167.915 396.369C155.868 394.901 144.914 388.724 136.28 378.453C126.418 366.748 120.173 350.606 117.682 330.472C114.713 306.618 124.302 294.231 132.834 288.02C147.064 277.68 166.891 278.021 173.511 281.127C181.224 284.744 190.54 274.916 198.798 266.214C199.993 264.951 201.153 263.722 202.279 262.562C217.806 246.728 229.034 239.391 264.797 240.449L297.148 241.78C353.148 243.452 365.98 264.951 389.219 303.991C392.836 310.065 396.59 316.344 400.822 323.169C410.036 337.911 415.393 352.21 416.349 364.598C417.236 376.2 414.267 385.96 407.818 392.785C401.436 399.542 392.256 402.887 381.302 402.887ZM340.829 388.895C340.988 388.895 341.136 388.941 341.273 389.032C368.676 404.081 393.621 405.002 406.418 391.489C412.493 385.039 415.257 375.791 414.438 364.734C413.517 352.688 408.227 338.662 399.218 324.159C394.952 317.334 391.198 311.055 387.581 304.98C363.932 265.258 352.056 245.329 297.08 243.691L264.729 242.36C229.546 241.336 219.103 248.127 203.644 263.893C202.518 265.053 201.358 266.282 200.163 267.545C191.495 276.69 181.667 287.064 172.692 282.867C166.447 279.932 147.61 279.659 133.96 289.556C122.289 298.019 117.341 312.078 119.559 330.233C122.016 349.992 128.124 365.792 137.748 377.224C146.04 387.121 156.585 393.058 168.154 394.458C188.39 396.881 207.125 385.039 214.701 365.007C214.872 364.564 215.315 364.325 215.793 364.427C216.237 364.495 216.578 364.905 216.544 365.383L215.759 394.56L339.874 395.106V389.851C339.874 389.509 340.044 389.202 340.317 389.032C340.476 388.941 340.647 388.895 340.829 388.895Z" fill="black"/>
<path d="M225.28 331.291C225.075 331.291 224.904 331.257 224.734 331.121C217.84 326.309 213.745 318.46 213.745 310.065C213.745 299.623 219.99 290.306 229.614 286.348C230.126 286.143 230.672 286.382 230.876 286.86C231.081 287.337 230.842 287.918 230.365 288.088C221.424 291.808 215.656 300.408 215.656 310.065C215.656 317.812 219.478 325.114 225.826 329.551C226.269 329.858 226.372 330.472 226.065 330.882C225.86 331.155 225.587 331.291 225.28 331.291Z" fill="black"/>
<path d="M229.989 288.191C229.477 288.191 229.034 287.747 229.034 287.235V275.837C229.034 275.291 229.477 274.882 229.989 274.882C230.535 274.882 230.945 275.291 230.945 275.837V287.235C230.945 287.747 230.535 288.191 229.989 288.191Z" fill="black"/>
<path d="M221.253 356.203C220.605 356.101 220.229 355.623 220.332 355.077L224.324 330.199C224.427 329.653 224.904 329.312 225.45 329.38C225.962 329.483 226.304 329.96 226.235 330.472L222.208 355.384C222.14 355.862 221.731 356.203 221.253 356.203Z" fill="black"/>
<path d="M400.003 338.287C399.832 338.287 399.627 338.219 399.457 338.116C370.416 317.129 341.034 314.365 340.727 314.331C340.215 314.297 339.805 313.819 339.874 313.307C339.908 312.761 340.385 312.386 340.897 312.42C341.204 312.454 371.098 315.286 400.583 336.546C400.992 336.854 401.095 337.468 400.788 337.877C400.617 338.15 400.31 338.287 400.003 338.287Z" fill="white"/>
<path d="M340.829 390.806C340.556 390.806 340.283 390.704 340.112 390.499L314.518 362.038C314.177 361.629 314.211 361.049 314.586 360.673C314.996 360.332 315.576 360.366 315.951 360.742L341.512 389.202C341.887 389.612 341.853 390.226 341.443 390.567C341.273 390.738 341.034 390.806 340.829 390.806Z" fill="white"/>
<path d="M334.243 324.603C333.697 324.603 333.287 324.193 333.287 323.647V275.837C333.287 275.291 333.697 274.882 334.243 274.882C334.755 274.882 335.198 275.291 335.198 275.837V323.647C335.198 324.193 334.755 324.603 334.243 324.603Z" fill="white"/>
<path d="M296.739 384.868H140.17C135.939 384.868 132.526 381.456 132.526 377.224V279.523C132.526 275.291 135.939 271.878 140.17 271.878H296.739C300.97 271.878 304.383 275.291 304.383 279.523V377.224C304.383 381.456 300.97 384.868 296.739 384.868Z" fill="white"/>
<path fill-rule="evenodd" clip-rule="evenodd" d="M287.218 385.824H149.692C139.693 385.824 131.571 377.702 131.571 367.703V289.044C131.571 279.045 139.693 270.923 149.692 270.923H287.218C297.217 270.923 305.338 279.045 305.338 289.044V367.703C305.338 377.702 297.217 385.824 287.218 385.824ZM149.692 272.834C140.751 272.834 133.482 280.103 133.482 289.044V367.703C133.482 376.644 140.751 383.913 149.692 383.913H287.218C296.159 383.913 303.427 376.644 303.427 367.703V289.044C303.427 280.103 296.159 272.834 287.218 272.834H149.692Z" fill="black"/>
<path d="M232.173 328.356C232.173 335.932 226.03 342.075 218.455 342.075C210.879 342.075 204.736 335.932 204.736 328.356C204.736 320.781 210.879 314.638 218.455 314.638C226.03 314.638 232.173 320.781 232.173 328.356Z" fill="#B0BA66"/>
<path d="M211.22 262.699H158.291V210.726L174.91 194.072H211.22V262.699Z" fill="white"/>
<path fill-rule="evenodd" clip-rule="evenodd" d="M211.22 263.654H158.291C157.745 263.654 157.336 263.211 157.336 262.699V210.726C157.336 210.453 157.438 210.214 157.609 210.043L174.228 193.39C174.398 193.219 174.637 193.117 174.91 193.117H211.22C211.766 193.117 212.176 193.56 212.176 194.072V262.699C212.176 263.211 211.766 263.654 211.22 263.654ZM159.247 261.743H210.264V195.028H175.32L159.247 211.101V261.743Z" fill="black"/>
<path fill-rule="evenodd" clip-rule="evenodd" d="M174.91 211.681H158.291C157.882 211.681 157.54 211.442 157.404 211.067C157.233 210.726 157.336 210.316 157.609 210.043L174.228 193.39C174.501 193.117 174.91 193.048 175.286 193.185C175.627 193.356 175.866 193.697 175.866 194.072V210.726C175.866 211.237 175.422 211.681 174.91 211.681ZM160.578 209.736H173.955V196.393L160.578 209.736Z" fill="black"/>
<path d="M249.577 196.836C248.246 212.807 260.122 226.867 276.093 228.232C292.063 229.563 306.123 217.687 307.488 201.716C308.819 185.746 296.978 171.686 280.973 170.321C265.002 168.99 250.942 180.831 249.577 196.836Z" fill="black"/>
<path d="M292.917 249.049L291.347 225.365C278.891 220.076 287.047 205.197 287.047 205.197C273.363 204.173 269.78 190.182 268.38 182.538C267.971 180.456 265.787 179.193 263.773 179.944C259.61 181.514 253.502 184.278 252.444 188.715C247.461 209.531 239.305 229.733 261.794 233.487L262.374 246.114L292.917 249.049Z" fill="white"/>
<path d="M292.575 244.953C292.098 244.953 291.654 244.578 291.62 244.066L290.323 224.58C290.289 224.069 290.699 223.591 291.21 223.557C291.756 223.523 292.2 223.932 292.234 224.444L293.531 243.93C293.565 244.442 293.19 244.919 292.644 244.953C292.621 244.953 292.598 244.953 292.575 244.953Z" fill="black"/>
<path d="M262.34 244.237C261.862 244.237 261.419 243.827 261.419 243.315L260.873 234.306C254.901 233.18 250.84 230.826 248.417 227.106C243.537 219.632 246.574 207.893 249.748 195.471C250.328 193.185 250.942 190.83 251.522 188.476C251.591 188.237 252.785 185.165 255.276 182.06C255.617 181.651 256.232 181.616 256.641 181.924C257.051 182.265 257.119 182.879 256.778 183.289C254.628 185.916 253.502 188.612 253.365 188.988C252.785 191.342 252.205 193.663 251.625 195.949C248.519 207.927 245.619 219.291 250.021 226.082C252.205 229.46 256.129 231.576 261.931 232.566C262.374 232.634 262.715 233.01 262.75 233.453L263.33 243.213C263.33 243.759 262.954 244.203 262.408 244.237C262.386 244.237 262.363 244.237 262.34 244.237Z" fill="black"/>
<path d="M264.797 234.579C263.819 234.579 262.795 234.534 261.726 234.443C261.18 234.409 260.805 233.931 260.839 233.419C260.873 232.907 261.351 232.498 261.862 232.532C268.073 233.078 273.056 231.713 273.09 231.679C273.602 231.542 274.148 231.849 274.284 232.361C274.421 232.839 274.148 233.385 273.636 233.521C273.431 233.59 269.814 234.579 264.797 234.579Z" fill="black"/>
<path d="M262.306 242.565C262.306 242.565 264.626 245.226 268.653 242.872C272.714 240.517 274.318 232.225 274.318 232.225L261.794 233.487L262.306 242.565Z" fill="black"/>
<path d="M255.652 210.76C255.515 210.76 255.39 210.737 255.276 210.691C254.798 210.521 254.56 209.941 254.764 209.463L259.678 197.382C259.849 196.905 260.429 196.666 260.907 196.87C261.385 197.075 261.624 197.621 261.453 198.133L256.539 210.179C256.368 210.555 256.027 210.76 255.652 210.76Z" fill="black"/>
<path d="M293.838 208.268C293.428 213.012 289.265 216.527 284.522 216.151C279.778 215.742 276.263 211.579 276.639 206.801C277.048 202.058 281.211 198.543 285.989 198.952C290.733 199.362 294.247 203.525 293.838 208.268Z" fill="white"/>
<path d="M283.532 209.906C283.327 209.906 283.088 209.838 282.918 209.668C282.508 209.326 282.474 208.746 282.815 208.337L286.33 204.173C286.672 203.798 287.286 203.73 287.661 204.071C288.071 204.412 288.139 205.026 287.798 205.436L284.283 209.565C284.078 209.804 283.805 209.906 283.532 209.906Z" fill="black"/>
<path d="M271.315 201.921C271.213 202.979 270.291 203.798 269.233 203.696C268.141 203.593 267.357 202.672 267.459 201.614C267.561 200.522 268.483 199.737 269.541 199.84C270.598 199.942 271.417 200.863 271.315 201.921Z" fill="black"/>
<path d="M256.095 198.372C255.993 199.43 255.071 200.215 254.013 200.147C252.921 200.044 252.137 199.089 252.239 198.031C252.307 196.973 253.263 196.188 254.321 196.29C255.379 196.359 256.163 197.314 256.095 198.372Z" fill="black"/>
<path d="M391.233 105.312C391.096 101.967 390.482 98.623 389.356 95.3811C384.271 80.7071 369.802 71.5614 354.684 70.4694C343.218 69.6504 330.045 72.9947 322.947 82.6864C312.095 97.4628 319.978 117.665 309.877 132.885C304.11 141.621 292.678 143.055 285.853 150.665C276.468 161.073 279.096 178.784 291.313 185.746C299.059 190.148 309.161 189.158 316.293 184.005C326.053 176.873 326.872 163.12 336.461 155.852C341.955 151.722 350.828 151.552 357.175 149.129C364.103 146.467 370.791 142.952 376.49 138.14C385.977 130.121 391.779 117.665 391.233 105.312Z" fill="black"/>
<path d="M305.441 189.261C305.236 189.261 305.031 189.192 304.861 189.056L280.393 171.106C279.983 170.799 279.881 170.184 280.222 169.775C280.529 169.331 281.109 169.263 281.553 169.57L305.987 187.52C306.43 187.827 306.499 188.442 306.191 188.851C306.021 189.124 305.714 189.261 305.441 189.261Z" fill="#B0BA66"/>
<path d="M309.331 188.032C307.83 188.032 306.84 187.93 306.703 187.93C306.157 187.861 305.782 187.384 305.85 186.872C305.884 186.326 306.362 185.95 306.908 186.019C307.045 186.019 322.06 187.52 327.281 177.589C328.51 175.303 329.499 173.153 330.455 171.072C333.867 163.666 336.563 157.797 344.856 155.886C349.463 154.828 373.044 148.276 384.066 123.978C384.305 123.5 384.851 123.296 385.329 123.5C385.841 123.739 386.045 124.285 385.807 124.763C376.968 144.215 359.086 154.555 345.299 157.763C337.928 159.469 335.505 164.656 332.195 171.891C331.206 174.006 330.216 176.156 328.987 178.511C324.517 186.974 314.245 188.032 309.331 188.032Z" fill="black"/>
<path d="M337.416 312.147L325.814 308.768C326.667 294.162 317.658 284.061 312.334 282.457C307.011 280.888 287.559 279.181 275.649 279.693C263.739 280.239 259.883 282.253 260.088 287.235C260.224 291.33 267.186 294.367 273.977 294.128C264.285 295.869 255.242 296.483 255.378 304.161C255.481 310.611 265.548 311.02 271.247 310.679C265.923 311.635 258.791 314.126 261.009 320.405C263.842 328.527 276.707 327.094 279.335 326.718C279.198 326.741 279.05 326.764 278.891 326.787C271.076 328.698 272.237 340.368 280.29 340.744C287.047 340.983 304.417 339.788 304.417 339.788C303.598 345.794 305.441 350.947 308.717 355.315C320.251 370.706 344.242 367.874 352.5 350.504L353.626 348.183C360.485 333.748 352.807 316.583 337.416 312.147Z" fill="white"/>
<path fill-rule="evenodd" clip-rule="evenodd" d="M328.885 366.304C320.627 366.304 312.948 362.516 307.932 355.862C304.451 351.186 302.881 346.136 303.325 340.846C299.332 341.085 286.091 341.904 280.461 341.699C275.478 341.495 273.021 337.877 272.68 334.397C272.475 332.178 273.124 329.756 274.83 327.981C274.739 327.981 274.648 327.981 274.557 327.981C269.438 327.981 262.238 326.855 260.088 320.746C259.371 318.699 259.474 316.822 260.429 315.218C261.271 313.739 262.75 312.522 264.865 311.567C261.555 311.259 258.347 310.406 256.368 308.564C255.105 307.403 254.457 305.902 254.423 304.161C254.321 297.541 260.258 295.63 267.322 294.333C262.852 293.105 259.235 290.579 259.132 287.269C258.893 280.751 264.968 279.216 275.615 278.738C287.559 278.226 307.181 279.932 312.607 281.536C317.726 283.106 327.349 292.695 326.803 308.086L337.689 311.225C345.299 313.409 351.51 318.835 354.752 326.036C357.994 333.236 357.892 341.461 354.479 348.593L353.387 350.913C349.258 359.513 341.136 365.212 331.581 366.168C330.671 366.259 329.772 366.304 328.885 366.304ZM304.417 338.833C304.656 338.833 304.929 338.969 305.099 339.14C305.304 339.345 305.372 339.652 305.338 339.925C304.656 345.146 306.021 350.128 309.468 354.735C314.586 361.561 322.777 365.11 331.41 364.256C340.249 363.403 347.825 358.08 351.647 350.094L352.739 347.774C355.912 341.153 356.015 333.509 352.978 326.821C349.975 320.132 344.207 315.116 337.178 313.068L325.541 309.69C325.131 309.587 324.824 309.178 324.858 308.734C325.677 294.64 317.078 284.88 312.061 283.379C306.772 281.809 287.457 280.137 275.683 280.649C263.193 281.229 260.907 283.379 261.043 287.201C261.146 290.511 267.425 293.412 273.943 293.173C274.421 293.173 274.864 293.514 274.932 294.026C275.001 294.538 274.659 294.982 274.148 295.084C273.124 295.266 272.111 295.437 271.11 295.596C261.896 297.166 256.232 298.394 256.334 304.127C256.368 305.356 256.778 306.345 257.665 307.164C259.815 309.178 264.763 310.099 271.179 309.724C271.69 309.69 272.134 310.065 272.202 310.577C272.237 311.055 271.895 311.532 271.417 311.635C268.005 312.249 263.603 313.546 262.067 316.174C261.419 317.3 261.35 318.596 261.896 320.098C264.49 327.503 276.775 326.104 279.198 325.763C279.744 325.695 280.222 326.036 280.29 326.548C280.393 327.06 280.051 327.537 279.539 327.64C279.403 327.663 279.266 327.697 279.13 327.742C275.649 328.561 274.318 331.598 274.591 334.226C274.83 336.888 276.707 339.618 280.358 339.788C286.945 340.027 304.178 338.867 304.349 338.867C304.371 338.844 304.394 338.833 304.417 338.833Z" fill="black"/>
<path d="M325.268 330.404C324.722 330.404 324.312 329.96 324.312 329.414L324.858 308.768C324.858 308.222 325.336 307.813 325.848 307.813C326.36 307.847 326.769 308.29 326.769 308.802L326.223 329.482C326.223 329.994 325.78 330.404 325.268 330.404Z" fill="black"/>
<path d="M273.977 328.22C273.465 328.22 273.055 327.879 273.021 327.367C272.953 326.855 273.328 326.377 273.874 326.309L308.41 322.521C308.921 322.453 309.399 322.828 309.467 323.34C309.502 323.886 309.126 324.364 308.614 324.398L274.079 328.22C274.034 328.22 274 328.22 273.977 328.22Z" fill="black"/>
<path d="M269.165 311.84C268.687 311.84 268.278 311.464 268.21 310.986C268.176 310.474 268.551 309.997 269.063 309.928L304.929 305.97C305.441 305.902 305.918 306.277 305.953 306.823C306.021 307.335 305.645 307.813 305.134 307.881L269.268 311.84C269.245 311.84 269.211 311.84 269.165 311.84Z" fill="black"/>
<path d="M273.977 295.084C273.499 295.084 273.09 294.709 273.021 294.231C272.987 293.719 273.363 293.241 273.875 293.173L301.926 290.17C302.472 290.136 302.95 290.511 302.984 291.023C303.052 291.569 302.677 292.013 302.131 292.081L274.079 295.084C274.057 295.084 274.022 295.084 273.977 295.084Z" fill="black"/>
<path d="M141.433 306.243C141.433 306.243 159.417 306.243 159.349 296.824C159.247 287.883 139.625 290.784 137.611 291.091C139.42 290.784 154.367 288.122 154.503 281.536C154.674 274.506 141.774 274.028 128.943 276.178C116.078 278.328 114.508 288.122 118.091 292.627C118.091 292.627 111.266 300.339 119.081 307.506C119.081 307.506 113.689 318.63 119.9 324.022C119.9 324.022 109.355 336.854 133.277 347.603V339.413C133.277 339.413 151.159 339.447 153.548 330.336C155.322 323.579 147.166 323.408 143.344 323.374C147.2 323.067 158.701 320.985 159.281 315.32C160.066 307.676 150.818 306.243 141.433 306.243Z" fill="white"/>
<path fill-rule="evenodd" clip-rule="evenodd" d="M133.277 348.559C133.141 348.559 133.016 348.536 132.902 348.491C123.654 344.327 118.296 339.311 116.965 333.646C115.907 329.175 117.682 325.592 118.637 324.125C113.655 318.938 116.897 310.168 117.955 307.71C111.539 301.363 115.429 294.64 116.897 292.627C115.293 290.17 115.02 286.826 116.146 283.857C117.17 281.263 120.139 276.69 128.773 275.223C134.472 274.302 148.292 272.561 153.445 277.066C154.81 278.26 155.493 279.762 155.459 281.536C155.356 285.256 151.5 287.781 147.337 289.453C151.398 289.522 155.698 290.204 158.155 292.286C159.554 293.446 160.271 294.982 160.305 296.824C160.305 298.872 159.554 300.715 158.052 302.216C156.21 304.059 153.445 305.253 150.715 305.97C154.367 306.653 156.926 307.847 158.496 309.587C159.895 311.123 160.475 313.102 160.236 315.423C159.793 319.518 154.742 321.907 150.033 323.169C151.534 323.613 152.865 324.33 153.753 325.456C154.776 326.787 155.015 328.527 154.469 330.575C152.217 339.106 138.123 340.198 134.233 340.335V347.603C134.233 347.945 134.096 348.252 133.823 348.422C133.664 348.513 133.482 348.559 133.277 348.559ZM141.16 276.008C137.679 276.008 133.584 276.383 129.08 277.134C121.367 278.397 118.808 282.321 117.955 284.539C116.931 287.133 117.272 290.102 118.808 292.047C119.115 292.388 119.115 292.9 118.808 293.275C118.535 293.548 112.734 300.373 119.729 306.789C120.071 307.096 120.139 307.54 119.968 307.915C119.9 308.018 114.918 318.426 120.514 323.272C120.924 323.613 120.958 324.227 120.651 324.603C120.617 324.637 117.648 328.356 118.808 333.236C119.968 338.014 124.507 342.348 132.322 346.102V339.413C132.322 339.14 132.424 338.901 132.629 338.731C132.799 338.526 133.038 338.458 133.277 338.458C133.516 338.458 150.442 338.355 152.626 330.097C153.002 328.629 152.865 327.469 152.217 326.616C150.545 324.398 145.665 324.364 143.344 324.33C142.832 324.33 142.389 323.92 142.389 323.408C142.389 322.896 142.764 322.453 143.276 322.419C147.781 322.077 157.848 319.791 158.325 315.218C158.53 313.444 158.121 312.01 157.063 310.85C154.845 308.393 149.726 307.199 141.433 307.199C140.819 307.13 140.478 306.721 140.478 306.243C140.478 305.697 140.887 305.288 141.433 305.288C141.536 305.288 152.388 305.219 156.687 300.851C157.848 299.725 158.394 298.394 158.359 296.824C158.359 295.562 157.882 294.572 156.926 293.753C153.207 290.579 143.139 291.194 137.782 292.047C137.236 292.115 136.758 291.774 136.69 291.262C136.587 290.75 136.929 290.238 137.475 290.17C143.378 289.18 153.445 286.245 153.548 281.502C153.582 280.273 153.138 279.318 152.217 278.499C150.306 276.861 146.416 276.008 141.16 276.008Z" fill="black"/>
<path d="M118.057 293.583C117.579 293.583 117.17 293.207 117.136 292.695C117.068 292.183 117.477 291.706 117.989 291.671L137.372 290.17C137.884 290.136 138.362 290.545 138.396 291.057C138.43 291.569 138.021 292.047 137.509 292.081L118.16 293.583C118.137 293.583 118.103 293.583 118.057 293.583Z" fill="black"/>
<path d="M119.081 308.461C118.603 308.461 118.159 308.052 118.125 307.574C118.125 307.028 118.501 306.584 119.047 306.55L141.365 305.288C141.877 305.254 142.355 305.663 142.389 306.175C142.423 306.687 142.013 307.165 141.467 307.199L119.149 308.461C119.126 308.461 119.104 308.461 119.081 308.461Z" fill="black"/>
<path d="M119.9 324.978C119.388 324.978 118.944 324.568 118.944 324.022C118.91 323.51 119.354 323.067 119.866 323.067L143.31 322.418C143.856 322.418 144.3 322.828 144.3 323.34C144.3 323.886 143.89 324.329 143.378 324.329L119.934 324.978C119.911 324.978 119.9 324.978 119.9 324.978Z" fill="black"/>
<path d="M256.061 215.367C255.879 215.367 255.708 215.355 255.549 215.332C255.037 215.298 254.628 214.821 254.696 214.309C254.73 213.763 255.208 213.387 255.72 213.421C258.177 213.66 259.713 211.169 259.747 211.169C260.02 210.691 260.6 210.555 261.043 210.828C261.487 211.135 261.658 211.715 261.351 212.159C261.282 212.295 259.371 215.367 256.061 215.367Z" fill="black"/>
</svg>