<svg width="777" height="340" viewBox="0 0 777 340" fill="none" xmlns="http://www.w3.org/2000/svg">
<path d="M57.09 59.78V74.85H25.63V91.13H49.17V105.76H25.63V137H6.82V59.78H57.09ZM85.7863 59.78V137H66.9763V59.78H85.7863ZM168.498 137H149.688L118.228 89.37V137H99.4177V59.78H118.228L149.688 107.63V59.78H168.498V137ZM211.063 59.78C219.203 59.78 226.316 61.3933 232.403 64.62C238.489 67.8467 243.183 72.3933 246.483 78.26C249.856 84.0533 251.543 90.7633 251.543 98.39C251.543 105.943 249.856 112.653 246.483 118.52C243.183 124.387 238.453 128.933 232.293 132.16C226.206 135.387 219.129 137 211.063 137H182.133V59.78H211.063ZM209.853 120.72C216.966 120.72 222.503 118.777 226.463 114.89C230.423 111.003 232.403 105.503 232.403 98.39C232.403 91.2767 230.423 85.74 226.463 81.78C222.503 77.82 216.966 75.84 209.853 75.84H200.943V120.72H209.853ZM463.883 185.64C463.883 190.113 462.856 194.22 460.803 197.96C458.75 201.627 455.596 204.597 451.343 206.87C447.09 209.143 441.81 210.28 435.503 210.28H423.843V238H405.033V160.78H435.503C441.663 160.78 446.87 161.843 451.123 163.97C455.376 166.097 458.566 169.03 460.693 172.77C462.82 176.51 463.883 180.8 463.883 185.64ZM434.073 195.32C437.666 195.32 440.343 194.477 442.103 192.79C443.863 191.103 444.743 188.72 444.743 185.64C444.743 182.56 443.863 180.177 442.103 178.49C440.343 176.803 437.666 175.96 434.073 175.96H423.843V195.32H434.073ZM521.745 224.36H492.925L488.305 238H468.615L496.555 160.78H518.335L546.275 238H526.365L521.745 224.36ZM516.905 209.84L507.335 181.57L497.875 209.84H516.905ZM594.159 238L578.099 208.85H573.589V238H554.779V160.78H586.349C592.436 160.78 597.606 161.843 601.859 163.97C606.186 166.097 609.412 169.03 611.539 172.77C613.666 176.437 614.729 180.543 614.729 185.09C614.729 190.223 613.262 194.807 610.329 198.84C607.469 202.873 603.216 205.733 597.569 207.42L615.389 238H594.159ZM573.589 195.54H585.249C588.696 195.54 591.262 194.697 592.949 193.01C594.709 191.323 595.589 188.94 595.589 185.86C595.589 182.927 594.709 180.617 592.949 178.93C591.262 177.243 588.696 176.4 585.249 176.4H573.589V195.54ZM682.087 160.78V175.85H661.627V238H642.817V175.85H622.357V160.78H682.087ZM757.747 160.78L731.017 212.48V238H712.207V212.48L685.477 160.78H706.817L721.777 193.12L736.627 160.78H757.747ZM75.9 339H57.09L25.63 291.37V339H6.82V261.78H25.63L57.09 309.63V261.78H75.9V339ZM108.345 276.85V292.47H133.535V306.99H108.345V323.93H136.835V339H89.5348V261.78H136.835V276.85H108.345ZM197.117 325.36H168.297L163.677 339H143.987L171.927 261.78H193.707L221.647 339H201.737L197.117 325.36ZM192.277 310.84L182.707 282.57L173.247 310.84H192.277ZM269.53 339L253.47 309.85H248.96V339H230.15V261.78H261.72C267.807 261.78 272.977 262.843 277.23 264.97C281.557 267.097 284.783 270.03 286.91 273.77C289.037 277.437 290.1 281.543 290.1 286.09C290.1 291.223 288.633 295.807 285.7 299.84C282.84 303.873 278.587 306.733 272.94 308.42L290.76 339H269.53ZM248.96 296.54H260.62C264.067 296.54 266.633 295.697 268.32 294.01C270.08 292.323 270.96 289.94 270.96 286.86C270.96 283.927 270.08 281.617 268.32 279.93C266.633 278.243 264.067 277.4 260.62 277.4H248.96V296.54ZM391.438 261.78L364.708 313.48V339H345.898V313.48L319.168 261.78H340.508L355.468 294.12L370.318 261.78H391.438ZM435.537 339.77C428.277 339.77 421.604 338.083 415.517 334.71C409.504 331.337 404.701 326.643 401.107 320.63C397.587 314.543 395.827 307.723 395.827 300.17C395.827 292.617 397.587 285.833 401.107 279.82C404.701 273.807 409.504 269.113 415.517 265.74C421.604 262.367 428.277 260.68 435.537 260.68C442.797 260.68 449.434 262.367 455.447 265.74C461.534 269.113 466.301 273.807 469.747 279.82C473.267 285.833 475.027 292.617 475.027 300.17C475.027 307.723 473.267 314.543 469.747 320.63C466.227 326.643 461.461 331.337 455.447 334.71C449.434 338.083 442.797 339.77 435.537 339.77ZM435.537 322.61C441.697 322.61 446.611 320.557 450.277 316.45C454.017 312.343 455.887 306.917 455.887 300.17C455.887 293.35 454.017 287.923 450.277 283.89C446.611 279.783 441.697 277.73 435.537 277.73C429.304 277.73 424.317 279.747 420.577 283.78C416.911 287.813 415.077 293.277 415.077 300.17C415.077 306.99 416.911 312.453 420.577 316.56C424.317 320.593 429.304 322.61 435.537 322.61ZM503.972 261.78V307.98C503.972 312.6 505.109 316.157 507.382 318.65C509.655 321.143 512.992 322.39 517.392 322.39C521.792 322.39 525.165 321.143 527.512 318.65C529.859 316.157 531.032 312.6 531.032 307.98V261.78H549.842V307.87C549.842 314.763 548.375 320.593 545.442 325.36C542.509 330.127 538.549 333.72 533.562 336.14C528.649 338.56 523.149 339.77 517.062 339.77C510.975 339.77 505.512 338.597 500.672 336.25C495.905 333.83 492.129 330.237 489.342 325.47C486.555 320.63 485.162 314.763 485.162 307.87V261.78H503.972Z" fill="white"/>
<path d="M372.815 59.78V137H354.005V90.69L336.735 137H321.555L304.175 90.58V137H285.365V59.78H307.585L329.255 113.24L350.705 59.78H372.815ZM422.861 137.77C415.601 137.77 408.928 136.083 402.841 132.71C396.828 129.337 392.025 124.643 388.431 118.63C384.911 112.543 383.151 105.723 383.151 98.17C383.151 90.6167 384.911 83.8333 388.431 77.82C392.025 71.8067 396.828 67.1133 402.841 63.74C408.928 60.3667 415.601 58.68 422.861 58.68C430.121 58.68 436.758 60.3667 442.771 63.74C448.858 67.1133 453.625 71.8067 457.071 77.82C460.591 83.8333 462.351 90.6167 462.351 98.17C462.351 105.723 460.591 112.543 457.071 118.63C453.551 124.643 448.785 129.337 442.771 132.71C436.758 136.083 430.121 137.77 422.861 137.77ZM422.861 120.61C429.021 120.61 433.935 118.557 437.601 114.45C441.341 110.343 443.211 104.917 443.211 98.17C443.211 91.35 441.341 85.9233 437.601 81.89C433.935 77.7833 429.021 75.73 422.861 75.73C416.628 75.73 411.641 77.7467 407.901 81.78C404.235 85.8133 402.401 91.2767 402.401 98.17C402.401 104.99 404.235 110.453 407.901 114.56C411.641 118.593 416.628 120.61 422.861 120.61ZM512.196 137L496.136 107.85H491.626V137H472.816V59.78H504.386C510.473 59.78 515.643 60.8433 519.896 62.97C524.223 65.0967 527.449 68.03 529.576 71.77C531.703 75.4367 532.766 79.5433 532.766 84.09C532.766 89.2233 531.299 93.8067 528.366 97.84C525.506 101.873 521.253 104.733 515.606 106.42L533.426 137H512.196ZM491.626 94.54H503.286C506.733 94.54 509.299 93.6967 510.986 92.01C512.746 90.3233 513.626 87.94 513.626 84.86C513.626 81.9267 512.746 79.6167 510.986 77.93C509.299 76.2433 506.733 75.4 503.286 75.4H491.626V94.54ZM563.384 74.85V90.47H588.574V104.99H563.384V121.93H591.874V137H544.574V59.78H591.874V74.85H563.384ZM43.34 238.77C36.08 238.77 29.4067 237.083 23.32 233.71C17.3067 230.337 12.5033 225.643 8.91 219.63C5.39 213.543 3.63 206.723 3.63 199.17C3.63 191.617 5.39 184.833 8.91 178.82C12.5033 172.807 17.3067 168.113 23.32 164.74C29.4067 161.367 36.08 159.68 43.34 159.68C50.6 159.68 57.2367 161.367 63.25 164.74C69.3367 168.113 74.1033 172.807 77.55 178.82C81.07 184.833 82.83 191.617 82.83 199.17C82.83 206.723 81.07 213.543 77.55 219.63C74.03 225.643 69.2633 230.337 63.25 233.71C57.2367 237.083 50.6 238.77 43.34 238.77ZM43.34 221.61C49.5 221.61 54.4133 219.557 58.08 215.45C61.82 211.343 63.69 205.917 63.69 199.17C63.69 192.35 61.82 186.923 58.08 182.89C54.4133 178.783 49.5 176.73 43.34 176.73C37.1067 176.73 32.12 178.747 28.38 182.78C24.7133 186.813 22.88 192.277 22.88 199.17C22.88 205.99 24.7133 211.453 28.38 215.56C32.12 219.593 37.1067 221.61 43.34 221.61ZM143.565 160.78V175.85H112.105V192.13H135.645V206.76H112.105V238H93.2946V160.78H143.565ZM232.311 160.78V175.85H211.851V238H193.041V175.85H172.581V160.78H232.311ZM308.632 160.78V238H289.822V206.21H260.562V238H241.752V160.78H260.562V191.03H289.822V160.78H308.632ZM341.021 175.85V191.47H366.211V205.99H341.021V222.93H369.511V238H322.211V160.78H369.511V175.85H341.021Z" fill="#34A853"/>
<line y1="6.5" x2="139" y2="6.5" stroke="#34A853"/>
<path d="M148.368 13V0.651999H150.708V5.674H156.468V0.651999H158.808V13H156.468V7.69H150.708V13H148.368ZM167.222 13.216C165.938 13.216 164.828 12.988 163.892 12.532C162.956 12.064 162.236 11.356 161.732 10.408C161.24 9.46 160.994 8.266 160.994 6.826C160.994 5.374 161.24 4.18 161.732 3.244C162.236 2.296 162.956 1.594 163.892 1.138C164.828 0.67 165.938 0.436 167.222 0.436C168.518 0.436 169.628 0.67 170.552 1.138C171.488 1.594 172.202 2.296 172.694 3.244C173.198 4.18 173.45 5.374 173.45 6.826C173.45 8.266 173.198 9.46 172.694 10.408C172.202 11.356 171.488 12.064 170.552 12.532C169.628 12.988 168.518 13.216 167.222 13.216ZM167.222 11.236C167.846 11.236 168.392 11.146 168.86 10.966C169.34 10.786 169.742 10.522 170.066 10.174C170.39 9.814 170.636 9.376 170.804 8.86C170.972 8.332 171.056 7.726 171.056 7.042V6.646C171.056 5.95 170.972 5.338 170.804 4.81C170.636 4.282 170.39 3.844 170.066 3.496C169.742 3.136 169.34 2.866 168.86 2.686C168.392 2.506 167.846 2.416 167.222 2.416C166.598 2.416 166.046 2.506 165.566 2.686C165.098 2.866 164.702 3.136 164.378 3.496C164.054 3.844 163.808 4.282 163.64 4.81C163.484 5.338 163.406 5.95 163.406 6.646V7.042C163.406 7.726 163.484 8.332 163.64 8.86C163.808 9.376 164.054 9.814 164.378 10.174C164.702 10.522 165.098 10.786 165.566 10.966C166.046 11.146 166.598 11.236 167.222 11.236ZM180.762 13.216C179.682 13.216 178.752 13.042 177.972 12.694C177.192 12.346 176.592 11.818 176.172 11.11C175.764 10.39 175.56 9.496 175.56 8.428V0.651999H177.9V8.356C177.9 9.304 178.146 10.024 178.638 10.516C179.142 10.996 179.85 11.236 180.762 11.236C181.674 11.236 182.382 10.996 182.886 10.516C183.402 10.024 183.66 9.304 183.66 8.356V0.651999H186V8.428C186 9.496 185.79 10.39 185.37 11.11C184.95 11.818 184.35 12.346 183.57 12.694C182.79 13.042 181.854 13.216 180.762 13.216ZM193.265 13.216C192.581 13.216 191.927 13.144 191.303 13C190.679 12.844 190.127 12.61 189.647 12.298C189.167 11.974 188.789 11.578 188.513 11.11C188.237 10.63 188.099 10.066 188.099 9.418C188.099 9.346 188.099 9.274 188.099 9.202C188.111 9.13 188.117 9.076 188.117 9.04H190.475C190.475 9.064 190.469 9.112 190.457 9.184C190.457 9.244 190.457 9.298 190.457 9.346C190.457 9.742 190.571 10.084 190.799 10.372C191.027 10.648 191.357 10.864 191.789 11.02C192.221 11.164 192.731 11.236 193.319 11.236C193.715 11.236 194.063 11.212 194.363 11.164C194.675 11.116 194.939 11.05 195.155 10.966C195.383 10.87 195.569 10.762 195.713 10.642C195.857 10.51 195.959 10.366 196.019 10.21C196.091 10.054 196.127 9.886 196.127 9.706C196.127 9.358 196.019 9.07 195.803 8.842C195.587 8.614 195.293 8.422 194.921 8.266C194.561 8.11 194.147 7.972 193.679 7.852C193.223 7.72 192.749 7.588 192.257 7.456C191.777 7.324 191.303 7.168 190.835 6.988C190.379 6.796 189.965 6.568 189.593 6.304C189.233 6.04 188.945 5.71 188.729 5.314C188.513 4.906 188.405 4.42 188.405 3.856C188.405 3.28 188.525 2.776 188.765 2.344C189.017 1.912 189.365 1.558 189.809 1.282C190.265 0.994 190.793 0.784 191.393 0.651999C191.993 0.508 192.647 0.436 193.355 0.436C194.015 0.436 194.633 0.508 195.209 0.651999C195.797 0.784 196.313 1 196.757 1.3C197.201 1.588 197.549 1.96 197.801 2.416C198.053 2.86 198.179 3.394 198.179 4.018V4.234H195.857V4.054C195.857 3.706 195.749 3.412 195.533 3.172C195.329 2.932 195.035 2.746 194.651 2.614C194.279 2.482 193.841 2.416 193.337 2.416C192.797 2.416 192.335 2.47 191.951 2.578C191.567 2.674 191.273 2.824 191.069 3.028C190.865 3.22 190.763 3.46 190.763 3.748C190.763 4.048 190.871 4.3 191.087 4.504C191.303 4.708 191.591 4.882 191.951 5.026C192.323 5.17 192.737 5.302 193.193 5.422C193.661 5.542 194.135 5.674 194.615 5.818C195.107 5.95 195.581 6.106 196.037 6.286C196.505 6.466 196.919 6.694 197.279 6.97C197.651 7.234 197.945 7.564 198.161 7.96C198.377 8.356 198.485 8.83 198.485 9.382C198.485 10.306 198.257 11.05 197.801 11.614C197.357 12.178 196.739 12.586 195.947 12.838C195.167 13.09 194.273 13.216 193.265 13.216ZM200.663 13V0.651999H210.293V2.65H203.003V5.692H209.501V7.69H203.003V11.002H210.401V13H200.663ZM215.781 13V2.668H211.839V0.651999H222.081V2.668H218.121V13H215.781ZM223.901 13V0.651999H226.241V5.674H232.001V0.651999H234.341V13H232.001V7.69H226.241V13H223.901ZM237.085 13V0.651999H246.715V2.65H239.425V5.692H245.923V7.69H239.425V11.002H246.823V13H237.085ZM249.179 13V0.651999H255.371C256.283 0.651999 257.033 0.813999 257.621 1.138C258.221 1.462 258.671 1.918 258.971 2.506C259.271 3.094 259.421 3.796 259.421 4.612C259.421 5.416 259.265 6.118 258.953 6.718C258.641 7.318 258.173 7.786 257.549 8.122C256.937 8.446 256.169 8.608 255.245 8.608H251.519V13H249.179ZM251.519 6.61H255.173C255.773 6.61 256.235 6.436 256.559 6.088C256.895 5.728 257.063 5.236 257.063 4.612C257.063 4.192 256.991 3.838 256.847 3.55C256.703 3.262 256.493 3.04 256.217 2.884C255.941 2.728 255.593 2.65 255.173 2.65H251.519V6.61ZM259.063 13L263.869 0.651999H266.821L271.645 13H269.107L268.117 10.372H262.465L261.475 13H259.063ZM263.203 8.392H267.361L266.119 5.044C266.071 4.924 266.011 4.774 265.939 4.594C265.879 4.402 265.813 4.198 265.741 3.982C265.669 3.754 265.597 3.526 265.525 3.298C265.453 3.07 265.387 2.866 265.327 2.686H265.237C265.165 2.926 265.075 3.202 264.967 3.514C264.871 3.826 264.775 4.12 264.679 4.396C264.583 4.672 264.505 4.888 264.445 5.044L263.203 8.392ZM273.102 13V0.651999H279.6C280.512 0.651999 281.268 0.807999 281.868 1.12C282.468 1.432 282.918 1.876 283.218 2.452C283.518 3.028 283.668 3.706 283.668 4.486C283.668 5.29 283.488 6.004 283.128 6.628C282.768 7.24 282.24 7.702 281.544 8.014L284.1 13H281.544L279.276 8.41H275.442V13H273.102ZM275.442 6.448H279.42C280.02 6.448 280.482 6.274 280.806 5.926C281.13 5.578 281.292 5.098 281.292 4.486C281.292 4.09 281.22 3.76 281.076 3.496C280.932 3.22 280.722 3.01 280.446 2.866C280.17 2.722 279.828 2.65 279.42 2.65H275.442V6.448ZM288.677 13V2.668H284.735V0.651999H294.977V2.668H291.017V13H288.677ZM300.01 13V7.978L295.258 0.651999H297.958L301.216 5.872H301.306L304.528 0.651999H307.084L302.35 7.978V13H300.01Z" fill="#34A853"/>
</svg>