<svg width="416" height="366" viewBox="0 0 416 366" fill="none" xmlns="http://www.w3.org/2000/svg">
<path d="M9.69116 153.991C15.8955 160.196 24.3085 163.683 33.0815 163.683C39.6705 163.683 46.0609 161.722 51.4587 158.111L27.9071 181.663C21.7027 187.867 18.2159 196.28 18.2159 205.053C18.2159 213.826 21.7027 222.239 27.9071 228.456C34.1114 234.66 42.5369 238.147 51.3098 238.147C57.8988 238.147 64.2892 236.174 69.687 232.563L57.328 244.922C51.1236 251.126 47.6368 259.539 47.6368 268.325C47.6368 277.098 51.1236 285.511 57.328 291.715C63.5323 297.919 71.9454 301.406 80.7183 301.406C87.3197 301.406 93.6977 299.433 99.1079 295.835L96.0802 298.85C89.8758 305.054 86.389 313.467 86.389 322.24C86.389 331.013 89.8758 339.439 96.0802 345.643C102.284 351.847 110.71 355.334 119.483 355.334C128.256 355.334 136.669 351.847 142.873 345.643L174.23 314.286C170.619 319.684 168.646 326.074 168.646 332.663C168.646 341.449 172.133 349.862 178.337 356.066C184.541 362.271 192.967 365.757 201.74 365.757C210.513 365.757 218.926 362.271 225.13 356.066L272.767 308.429C269.156 313.827 267.195 320.218 267.195 326.807C267.195 335.579 270.682 344.005 276.887 350.209C283.091 356.414 291.504 359.9 300.277 359.9C309.05 359.9 317.475 356.414 323.68 350.209L397.834 276.043C404.038 269.839 407.525 261.425 407.525 252.64C407.525 243.867 404.038 235.454 397.834 229.25C391.629 223.045 383.216 219.559 374.443 219.559C367.854 219.559 361.464 221.532 356.066 225.143L371.589 209.607C377.794 203.403 381.281 194.99 381.281 186.217C381.281 177.444 377.794 169.031 371.589 162.826C365.385 156.622 356.96 153.135 348.187 153.135C341.598 153.135 335.207 155.096 329.81 158.707L361.166 127.35C367.37 121.146 370.857 112.733 370.857 103.96C370.857 95.1867 367.37 86.7737 361.166 80.5694C354.962 74.365 346.536 70.8782 337.763 70.8782C331.174 70.8782 324.784 72.8388 319.386 76.4497L339.352 56.4842C345.556 50.2798 349.043 41.8668 349.043 33.0939C349.043 24.3085 345.556 15.8955 339.352 9.69115C333.147 3.48683 324.734 0 315.949 0C307.176 0 298.763 3.48683 292.559 9.69115L248.086 54.1638C251.697 48.766 253.658 42.3755 253.658 35.7865C253.658 27.0136 250.171 18.6006 243.966 12.3838C237.762 6.17951 229.349 2.70508 220.576 2.70508C211.803 2.70508 203.39 6.17951 197.186 12.3838L134.758 74.8117C138.369 69.414 140.329 63.0235 140.329 56.4345C140.329 47.6616 136.843 39.2486 130.638 33.0442C124.434 26.8399 116.021 23.3531 107.248 23.3531C98.475 23.3531 90.0496 26.8399 83.8452 33.0442L9.69116 107.198C3.48683 113.403 0 121.828 0 130.601C0 139.374 3.48683 147.787 9.69116 153.991Z" fill="white"/>
<path d="M406.557 295.016L404.261 297.311C403.368 298.205 403.368 299.656 404.261 300.55C405.155 301.443 406.607 301.443 407.5 300.55L409.796 298.254L412.079 300.55C412.985 301.443 414.424 301.443 415.33 300.55C416.223 299.656 416.223 298.205 415.33 297.311L413.034 295.016L415.33 292.732C416.223 291.839 416.223 290.387 415.33 289.494C414.871 289.047 414.288 288.811 413.704 288.811C413.121 288.811 412.526 289.047 412.079 289.494L409.796 291.777L407.5 289.494C407.053 289.047 406.47 288.811 405.887 288.811C405.304 288.811 404.708 289.047 404.261 289.494C403.368 290.387 403.368 291.839 404.261 292.732L406.557 295.016Z" fill="white"/>
<path d="M79.4277 344.34L77.1446 346.636C76.2511 347.529 76.2511 348.981 77.1446 349.874C78.038 350.768 79.4898 350.768 80.3832 349.874L82.6664 347.579L84.962 349.874C85.8554 350.768 87.3072 350.768 88.2007 349.874C89.0941 348.981 89.0941 347.529 88.2007 346.636L85.9051 344.34L88.2007 342.057C89.0941 341.163 89.0941 339.712 88.2007 338.806C87.7539 338.359 87.1707 338.136 86.5751 338.136C85.9919 338.136 85.4087 338.359 84.962 338.806L82.6664 341.101L80.3832 338.806C79.9365 338.359 79.3533 338.136 78.7577 338.136C78.1745 338.136 77.5913 338.359 77.1446 338.806C76.2511 339.712 76.2511 341.163 77.1446 342.057L79.4277 344.34Z" fill="white"/>
<path d="M20.859 141.421L18.5634 143.705C17.67 144.598 17.67 146.05 18.5634 146.943C19.4568 147.837 20.9086 147.837 21.802 146.943L24.0976 144.66L26.3808 146.943C27.2743 147.837 28.7261 147.837 29.6195 146.943C30.5129 146.05 30.5129 144.598 29.6195 143.705L27.3363 141.421L29.6195 139.126C30.5129 138.232 30.5129 136.781 29.6195 135.887C29.1728 135.44 28.5896 135.217 28.0064 135.217C27.4232 135.217 26.8275 135.44 26.3808 135.887L24.0976 138.183L21.802 135.887C21.3553 135.44 20.7721 135.217 20.1889 135.217C19.5933 135.217 19.0101 135.44 18.5634 135.887C17.67 136.781 17.67 138.232 18.5634 139.126L20.859 141.421Z" fill="white"/>
<path d="M296.393 23.7624L294.11 26.0456C293.216 26.9514 293.216 28.4033 294.11 29.2967C295.003 30.1901 296.455 30.1901 297.348 29.2967L299.644 27.0011L301.927 29.2967C302.821 30.1901 304.272 30.1901 305.166 29.2967C306.059 28.4033 306.059 26.9514 305.166 26.0456L302.883 23.7624L305.166 21.4792C306.059 20.5734 306.059 19.1216 305.166 18.2282C304.719 17.7815 304.136 17.5581 303.553 17.5581C302.957 17.5581 302.374 17.7815 301.927 18.2282L299.644 20.5238L297.348 18.2282C296.902 17.7815 296.318 17.5581 295.735 17.5581C295.14 17.5581 294.556 17.7815 294.11 18.2282C293.216 19.1216 293.216 20.5734 294.11 21.4792L296.393 23.7624Z" fill="white"/>
<path fill-rule="evenodd" clip-rule="evenodd" d="M254.489 347.529C258.174 347.529 261.177 350.532 261.177 354.23C261.177 357.915 258.174 360.918 254.489 360.918C250.791 360.918 247.788 357.915 247.788 354.23C247.788 350.532 250.791 347.529 254.489 347.529ZM254.489 356.339C255.643 356.339 256.598 355.384 256.598 354.23C256.598 353.063 255.643 352.12 254.489 352.12C253.323 352.12 252.367 353.063 252.367 354.23C252.367 355.384 253.323 356.339 254.489 356.339Z" fill="white"/>
<path fill-rule="evenodd" clip-rule="evenodd" d="M380.635 134.261C384.321 134.261 387.324 137.264 387.324 140.95C387.324 144.635 384.321 147.638 380.635 147.638C376.938 147.638 373.935 144.635 373.935 140.95C373.935 137.264 376.938 134.261 380.635 134.261ZM380.635 143.059C381.789 143.059 382.745 142.116 382.745 140.95C382.745 139.783 381.789 138.84 380.635 138.84C379.469 138.84 378.514 139.783 378.514 140.95C378.514 142.116 379.469 143.059 380.635 143.059Z" fill="white"/>
<path fill-rule="evenodd" clip-rule="evenodd" d="M100.436 26.8398C104.121 26.8398 107.124 29.8427 107.124 33.5281C107.124 37.2259 104.121 40.2288 100.436 40.2288C96.7502 40.2288 93.7473 37.2259 93.7473 33.5281C93.7473 29.8427 96.7502 26.8398 100.436 26.8398ZM100.436 35.6376C101.602 35.6376 102.545 34.6945 102.545 33.5281C102.545 32.3617 101.602 31.4186 100.436 31.4186C99.2692 31.4186 98.3261 32.3617 98.3261 33.5281C98.3261 34.6945 99.2692 35.6376 100.436 35.6376Z" fill="white"/>
<path fill-rule="evenodd" clip-rule="evenodd" d="M22.4596 235.814C26.1574 235.814 29.1603 238.817 29.1603 242.515C29.1603 246.2 26.1574 249.203 22.4596 249.203C18.7743 249.203 15.7714 246.2 15.7714 242.515C15.7714 238.817 18.7743 235.814 22.4596 235.814ZM22.4596 244.624C23.626 244.624 24.5691 243.669 24.5691 242.515C24.5691 241.348 23.626 240.405 22.4596 240.405C21.2932 240.405 20.3502 241.348 20.3502 242.515C20.3502 243.669 21.2932 244.624 22.4596 244.624Z" fill="white"/>
<path d="M9.69116 153.991C15.8955 160.196 24.3085 163.683 33.0815 163.683C39.6705 163.683 46.0609 161.722 51.4587 158.111L27.9071 181.663C21.7027 187.867 18.2159 196.28 18.2159 205.053C18.2159 213.826 21.7027 222.239 27.9071 228.456C34.1114 234.66 42.5369 238.147 51.3098 238.147C57.8988 238.147 64.2892 236.174 69.687 232.563L57.328 244.922C51.1236 251.126 47.6368 259.539 47.6368 268.325C47.6368 277.098 51.1236 285.511 57.328 291.715C63.5323 297.919 71.9454 301.406 80.7183 301.406C87.3197 301.406 93.6977 299.433 99.1079 295.835L96.0802 298.85C89.8758 305.054 86.389 313.467 86.389 322.24C86.389 331.013 89.8758 339.439 96.0802 345.643C102.284 351.847 110.71 355.334 119.483 355.334C128.256 355.334 136.669 351.847 142.873 345.643L174.23 314.286C170.619 319.684 168.646 326.074 168.646 332.663C168.646 341.449 172.133 349.862 178.337 356.066C184.541 362.271 192.967 365.757 201.74 365.757C210.513 365.757 218.926 362.271 225.13 356.066L272.767 308.429C269.156 313.827 267.195 320.218 267.195 326.807C267.195 335.579 270.682 344.005 276.887 350.209C283.091 356.414 291.504 359.9 300.277 359.9C309.05 359.9 317.475 356.414 323.68 350.209L397.834 276.043C404.038 269.839 407.525 261.425 407.525 252.64C407.525 243.867 404.038 235.454 397.834 229.25C391.629 223.045 383.216 219.559 374.443 219.559C367.854 219.559 361.464 221.532 356.066 225.143L371.589 209.607C377.794 203.403 381.281 194.99 381.281 186.217C381.281 177.444 377.794 169.031 371.589 162.826C365.385 156.622 356.96 153.135 348.187 153.135C341.598 153.135 335.207 155.096 329.81 158.707L361.166 127.35C367.37 121.146 370.857 112.733 370.857 103.96C370.857 95.1867 367.37 86.7737 361.166 80.5694C354.962 74.365 346.536 70.8782 337.763 70.8782C331.174 70.8782 324.784 72.8388 319.386 76.4497L339.352 56.4842C345.556 50.2798 349.043 41.8668 349.043 33.0939C349.043 24.3085 345.556 15.8955 339.352 9.69115C333.147 3.48683 324.734 0 315.949 0C307.176 0 298.763 3.48683 292.559 9.69115L248.086 54.1638C251.697 48.766 253.658 42.3755 253.658 35.7865C253.658 27.0136 250.171 18.6006 243.966 12.3838C237.762 6.17951 229.349 2.70508 220.576 2.70508C211.803 2.70508 203.39 6.17951 197.186 12.3838L134.758 74.8117C138.369 69.414 140.329 63.0235 140.329 56.4345C140.329 47.6616 136.843 39.2486 130.638 33.0442C124.434 26.8399 116.021 23.3531 107.248 23.3531C98.475 23.3531 90.0496 26.8399 83.8452 33.0442L9.69116 107.198C3.48683 113.403 0 121.828 0 130.601C0 139.374 3.48683 147.787 9.69116 153.991Z" fill="#77C574"/>
<path d="M406.557 295.016L404.261 297.311C403.368 298.205 403.368 299.656 404.261 300.55C405.155 301.443 406.607 301.443 407.5 300.55L409.796 298.254L412.079 300.55C412.985 301.443 414.424 301.443 415.33 300.55C416.223 299.656 416.223 298.205 415.33 297.311L413.034 295.016L415.33 292.732C416.223 291.839 416.223 290.387 415.33 289.494C414.871 289.047 414.288 288.811 413.704 288.811C413.121 288.811 412.526 289.047 412.079 289.494L409.796 291.777L407.5 289.494C407.053 289.047 406.47 288.811 405.887 288.811C405.304 288.811 404.708 289.047 404.261 289.494C403.368 290.387 403.368 291.839 404.261 292.732L406.557 295.016Z" fill="black"/>
<path d="M79.4277 344.34L77.1446 346.636C76.2511 347.529 76.2511 348.981 77.1446 349.874C78.038 350.768 79.4898 350.768 80.3832 349.874L82.6664 347.579L84.962 349.874C85.8554 350.768 87.3072 350.768 88.2007 349.874C89.0941 348.981 89.0941 347.529 88.2007 346.636L85.9051 344.34L88.2007 342.057C89.0941 341.163 89.0941 339.712 88.2007 338.806C87.7539 338.359 87.1707 338.136 86.5751 338.136C85.9919 338.136 85.4087 338.359 84.962 338.806L82.6664 341.101L80.3832 338.806C79.9365 338.359 79.3533 338.136 78.7577 338.136C78.1745 338.136 77.5913 338.359 77.1446 338.806C76.2511 339.712 76.2511 341.163 77.1446 342.057L79.4277 344.34Z" fill="black"/>
<path d="M20.859 141.421L18.5634 143.705C17.67 144.598 17.67 146.05 18.5634 146.943C19.4568 147.837 20.9086 147.837 21.802 146.943L24.0976 144.66L26.3808 146.943C27.2743 147.837 28.7261 147.837 29.6195 146.943C30.5129 146.05 30.5129 144.598 29.6195 143.705L27.3363 141.421L29.6195 139.126C30.5129 138.232 30.5129 136.781 29.6195 135.887C29.1728 135.44 28.5896 135.217 28.0064 135.217C27.4232 135.217 26.8275 135.44 26.3808 135.887L24.0976 138.183L21.802 135.887C21.3553 135.44 20.7721 135.217 20.1889 135.217C19.5933 135.217 19.0101 135.44 18.5634 135.887C17.67 136.781 17.67 138.232 18.5634 139.126L20.859 141.421Z" fill="black"/>
<path d="M296.393 23.7624L294.11 26.0456C293.216 26.9514 293.216 28.4033 294.11 29.2967C295.003 30.1901 296.455 30.1901 297.348 29.2967L299.644 27.0011L301.927 29.2967C302.821 30.1901 304.272 30.1901 305.166 29.2967C306.059 28.4033 306.059 26.9514 305.166 26.0456L302.883 23.7624L305.166 21.4792C306.059 20.5734 306.059 19.1216 305.166 18.2282C304.719 17.7815 304.136 17.5581 303.553 17.5581C302.957 17.5581 302.374 17.7815 301.927 18.2282L299.644 20.5238L297.348 18.2282C296.902 17.7815 296.318 17.5581 295.735 17.5581C295.14 17.5581 294.556 17.7815 294.11 18.2282C293.216 19.1216 293.216 20.5734 294.11 21.4792L296.393 23.7624Z" fill="black"/>
<path fill-rule="evenodd" clip-rule="evenodd" d="M254.489 347.529C258.174 347.529 261.177 350.532 261.177 354.23C261.177 357.915 258.174 360.918 254.489 360.918C250.791 360.918 247.788 357.915 247.788 354.23C247.788 350.532 250.791 347.529 254.489 347.529ZM254.489 356.339C255.643 356.339 256.598 355.384 256.598 354.23C256.598 353.063 255.643 352.12 254.489 352.12C253.323 352.12 252.367 353.063 252.367 354.23C252.367 355.384 253.323 356.339 254.489 356.339Z" fill="black"/>
<path fill-rule="evenodd" clip-rule="evenodd" d="M380.635 134.261C384.321 134.261 387.324 137.264 387.324 140.95C387.324 144.635 384.321 147.638 380.635 147.638C376.938 147.638 373.935 144.635 373.935 140.95C373.935 137.264 376.938 134.261 380.635 134.261ZM380.635 143.059C381.789 143.059 382.745 142.116 382.745 140.95C382.745 139.783 381.789 138.84 380.635 138.84C379.469 138.84 378.514 139.783 378.514 140.95C378.514 142.116 379.469 143.059 380.635 143.059Z" fill="black"/>
<path fill-rule="evenodd" clip-rule="evenodd" d="M100.436 26.8398C104.121 26.8398 107.124 29.8427 107.124 33.5281C107.124 37.2259 104.121 40.2288 100.436 40.2288C96.7502 40.2288 93.7473 37.2259 93.7473 33.5281C93.7473 29.8427 96.7502 26.8398 100.436 26.8398ZM100.436 35.6376C101.602 35.6376 102.545 34.6945 102.545 33.5281C102.545 32.3617 101.602 31.4186 100.436 31.4186C99.2692 31.4186 98.3261 32.3617 98.3261 33.5281C98.3261 34.6945 99.2692 35.6376 100.436 35.6376Z" fill="black"/>
<path fill-rule="evenodd" clip-rule="evenodd" d="M22.4596 235.814C26.1574 235.814 29.1603 238.817 29.1603 242.515C29.1603 246.2 26.1574 249.203 22.4596 249.203C18.7743 249.203 15.7714 246.2 15.7714 242.515C15.7714 238.817 18.7743 235.814 22.4596 235.814ZM22.4596 244.624C23.626 244.624 24.5691 243.669 24.5691 242.515C24.5691 241.348 23.626 240.405 22.4596 240.405C21.2932 240.405 20.3502 241.348 20.3502 242.515C20.3502 243.669 21.2932 244.624 22.4596 244.624Z" fill="black"/>
<path d="M100.647 257.405V246.51L102.433 246.101C107.285 244.971 111.231 241.137 112.484 236.31L112.931 234.598H306.891V131.184H329.71V257.405H100.647Z" fill="white"/>
<path d="M77.8147 234.573V223.666L79.5891 223.256C85.6694 221.854 90.0869 216.308 90.0869 210.066C90.0869 203.837 85.6694 198.29 79.5891 196.888L77.8147 196.466V185.063L79.5891 184.653C85.6694 183.251 90.0869 177.704 90.0869 171.463C90.0869 165.221 85.6694 159.674 79.6015 158.272L77.8147 157.863V146.447L79.5891 146.037C85.6694 144.635 90.0869 139.089 90.0869 132.847C90.0869 126.618 85.6694 121.071 79.5891 119.657L77.8147 119.247V108.352H306.878V234.573H77.8147Z" fill="white"/>
<g style="mix-blend-mode:multiply">
<path d="M237.191 135.552H255.544V140.59H243.445V145.069H255.047V150.107H243.445V155.406H256.325L255.581 160.456H237.191V135.552Z" fill="#DDDDDD"/>
</g>
<g style="mix-blend-mode:multiply">
<path d="M211.754 135.552H218.169V146.087C219.77 144.027 224.125 138.94 226.88 135.552H234.561L225.006 145.814L234.883 160.456H227.215L220.539 149.996L218.169 152.366V160.456H211.754V135.552Z" fill="#DDDDDD"/>
</g>
<g style="mix-blend-mode:multiply">
<path d="M197.111 135.143C204.122 135.143 207.398 139.262 207.944 143.481H201.492C201.107 141.719 199.953 139.945 196.925 139.945C193.004 139.945 191.577 143.543 191.577 147.923C191.577 151.931 192.768 156.051 197.049 156.051C200.263 156.051 201.169 153.78 201.504 152.477H207.994C207.038 157.416 203.353 160.853 196.789 160.853C188.723 160.853 184.901 155.307 184.901 148.159C184.901 141.235 188.785 135.143 197.111 135.143Z" fill="#DDDDDD"/>
</g>
<g style="mix-blend-mode:multiply">
<path d="M174.056 135.552H180.533V160.456H174.056V135.552Z" fill="#DDDDDD"/>
</g>
<g style="mix-blend-mode:multiply">
<path d="M149.847 135.552H170.904V140.59H163.633V160.456H157.168V140.59H149.847V135.552Z" fill="#DDDDDD"/>
</g>
<g style="mix-blend-mode:multiply">
<path d="M121.766 229.163H114.644V219.298H121.766V229.163Z" fill="#DDDDDD"/>
</g>
<g style="mix-blend-mode:multiply">
<path d="M121.766 212.597H114.644V202.732H121.766V212.597Z" fill="#DDDDDD"/>
</g>
<g style="mix-blend-mode:multiply">
<path d="M121.766 196.032H114.644V186.167H121.766V196.032Z" fill="#DDDDDD"/>
</g>
<g style="mix-blend-mode:multiply">
<path d="M121.766 179.466H114.644V169.601H121.766V179.466Z" fill="#DDDDDD"/>
</g>
<g style="mix-blend-mode:multiply">
<path d="M121.766 162.901H114.644V153.036H121.766V162.901Z" fill="#DDDDDD"/>
</g>
<g style="mix-blend-mode:multiply">
<path d="M121.766 146.335H114.644V136.47H121.766V146.335Z" fill="#DDDDDD"/>
</g>
<g style="mix-blend-mode:multiply">
<path d="M121.766 129.77H114.644V119.905H121.766V129.77Z" fill="#DDDDDD"/>
</g>
<g style="mix-blend-mode:multiply">
<path d="M250.096 210.364C250.096 212.337 248.496 213.925 246.535 213.925H182.73C180.769 213.925 179.168 212.337 179.168 210.364C179.168 208.391 180.769 206.802 182.73 206.802H246.535C248.496 206.802 250.096 208.391 250.096 210.364Z" fill="#DDDDDD"/>
</g>
<g style="mix-blend-mode:multiply">
<path d="M279.418 187.854C279.418 189.827 277.817 191.416 275.857 191.416H153.408C151.448 191.416 149.847 189.827 149.847 187.854C149.847 185.894 151.448 184.293 153.408 184.293H275.857C277.817 184.293 279.418 185.894 279.418 187.854Z" fill="#DDDDDD"/>
</g>
<g style="mix-blend-mode:multiply">
<path d="M279.418 140.59H272.146V160.456H265.682V140.59H258.36V135.552H279.418V140.59Z" fill="#DDDDDD"/>
</g>
<g style="mix-blend-mode:multiply">
<path fill-rule="evenodd" clip-rule="evenodd" d="M335.257 132.14V259.701H101.614V247.937L101.9 247.875L105.163 247.118C107.049 246.684 108.762 245.753 110.164 244.488C110.189 244.463 110.218 244.438 110.251 244.413C110.491 244.182 110.726 243.942 110.958 243.694C110.975 243.677 110.991 243.656 111.008 243.632C111.926 242.614 112.658 241.423 113.154 240.12H78.7825V225.105L82.3313 224.274C84.3788 223.802 86.2028 222.773 87.6422 221.358C87.6505 221.35 87.6588 221.341 87.6671 221.333C89.7641 219.261 91.0422 216.394 91.0422 213.33C91.0422 211.679 90.67 210.091 90.0123 208.651C89.1189 206.741 87.7043 205.078 85.9299 203.911C84.8503 203.204 83.6343 202.671 82.3313 202.373L78.7825 201.554V186.49L82.3313 185.671C84.3043 185.212 86.0664 184.231 87.4809 182.904C87.5223 182.862 87.5637 182.821 87.605 182.779C87.6464 182.738 87.6877 182.697 87.7291 182.655C87.7539 182.631 87.7829 182.602 87.816 182.569C89.8262 180.521 91.0422 177.717 91.0422 174.714C91.0422 173.076 90.67 171.488 90.0123 170.048C89.1189 168.125 87.7043 166.475 85.9299 165.308C84.8503 164.588 83.6343 164.067 82.3313 163.769L78.7825 162.95V147.886L82.3313 147.055C84.3043 146.608 86.0664 145.628 87.4809 144.288C87.514 144.255 87.5513 144.222 87.5926 144.189C87.6423 144.139 87.6877 144.089 87.7291 144.04C87.7622 144.015 87.7911 143.99 87.816 143.965C89.8262 141.905 91.0422 139.101 91.0422 136.111C91.0422 134.46 90.67 132.872 90.0123 131.432C89.1189 129.522 87.7043 127.859 85.9299 126.692C84.8503 125.985 83.6343 125.452 82.3313 125.154L78.7825 124.335V109.308H312.425V132.14H335.257ZM83.3613 235.529H307.834V113.899H83.3613V120.687C85.5204 121.183 87.5182 122.126 89.243 123.417C93.1145 126.295 95.6334 130.911 95.6334 136.111C95.6334 143.605 90.3846 149.909 83.3613 151.534V159.29C85.5204 159.786 87.5182 160.729 89.243 162.02C93.1145 164.911 95.6334 169.527 95.6334 174.714C95.6334 182.221 90.3846 188.525 83.3613 190.138V197.906C85.5204 198.402 87.5182 199.345 89.243 200.636C93.1145 203.514 95.6334 208.13 95.6334 213.33C95.6334 220.837 90.3846 227.128 83.3613 228.754V235.529ZM330.666 136.731H312.45V240.145H117.957C116.48 245.815 111.938 250.258 106.206 251.585V258.361H330.666V136.731Z" fill="white"/>
</g>
<path d="M234.126 132.475H252.479V137.513H240.368V141.992H251.983V147.042H240.368V152.341H253.248L252.504 157.379H234.126V132.475Z" fill="#B0BA66"/>
<path d="M208.689 132.475H215.092V143.022C216.692 140.95 221.06 135.862 223.802 132.475H231.496L221.941 142.749L231.806 157.379H224.15L217.462 146.931L215.092 149.288V157.379H208.689V132.475Z" fill="#B0BA66"/>
<path d="M194.034 132.065C201.057 132.065 204.321 136.185 204.867 140.416H198.427C198.03 138.654 196.876 136.867 193.86 136.867C189.927 136.867 188.5 140.466 188.5 144.858C188.5 148.866 189.703 152.974 193.972 152.974C197.186 152.974 198.092 150.703 198.439 149.4H204.916C203.973 154.339 200.288 157.788 193.711 157.788C185.646 157.788 181.836 152.242 181.836 145.082C181.836 138.158 185.72 132.065 194.034 132.065Z" fill="#B0BA66"/>
<path d="M170.979 132.475H177.456V157.379H170.979V132.475Z" fill="#B0BA66"/>
<path d="M146.77 132.475H167.827V137.513H160.556V157.379H154.091V137.513H146.77V132.475Z" fill="#B0BA66"/>
<path d="M118.689 226.098H111.566V216.221H118.689V226.098Z" fill="#B0BA66"/>
<path d="M118.689 209.532H111.566V199.655H118.689V209.532Z" fill="#B0BA66"/>
<path d="M118.689 192.967H111.566V183.09H118.689V192.967Z" fill="#B0BA66"/>
<path d="M118.689 176.401H111.566V166.524H118.689V176.401Z" fill="#B0BA66"/>
<path d="M118.689 159.836H111.566V149.958H118.689V159.836Z" fill="#B0BA66"/>
<path d="M118.689 143.258H111.566V133.393H118.689V143.258Z" fill="#B0BA66"/>
<path d="M118.689 126.692H111.566V116.827H118.689V126.692Z" fill="#B0BA66"/>
<path d="M247.019 207.286C247.019 209.259 245.431 210.848 243.458 210.848H179.665C177.692 210.848 176.091 209.259 176.091 207.286C176.091 205.326 177.692 203.725 179.665 203.725H243.458C245.431 203.725 247.019 205.326 247.019 207.286Z" fill="#B0BA66"/>
<path d="M276.341 184.79C276.341 186.75 274.752 188.351 272.779 188.351H150.343C148.37 188.351 146.77 186.75 146.77 184.79C146.77 182.817 148.37 181.216 150.343 181.216H272.779C274.752 181.216 276.341 182.817 276.341 184.79Z" fill="#B0BA66"/>
<path d="M276.341 137.513H269.082V157.379H262.604V137.513H255.296V132.475H276.341V137.513Z" fill="#B0BA66"/>
<path fill-rule="evenodd" clip-rule="evenodd" d="M332.006 128.889V259.701H98.351V244.686L101.205 244.016L101.912 243.855C104.307 243.309 106.429 241.956 107.98 240.12C108.787 239.164 109.444 238.06 109.903 236.869C110.044 236.496 110.164 236.116 110.263 235.727L110.313 235.529L110.561 234.573L111.157 232.29H304.595V128.889H332.006ZM110.958 243.693C110.735 243.942 110.499 244.182 110.251 244.413C110.226 244.438 110.197 244.463 110.164 244.488C108.179 246.349 105.697 247.701 102.955 248.334V255.109H327.415V133.48H309.199V236.881H114.718C114.048 239.45 112.757 241.745 111.02 243.631C110.995 243.656 110.975 243.677 110.958 243.693Z" fill="#333333"/>
<path fill-rule="evenodd" clip-rule="evenodd" d="M309.174 106.057V236.869H75.519V221.842L79.0803 221.023C84.1306 219.856 87.7912 215.253 87.7912 210.066C87.7912 207.832 87.1087 205.71 85.9299 203.911C84.3664 201.554 81.9467 199.779 79.0803 199.121L78.7825 199.047L75.519 198.303V183.238L79.0803 182.407C84.1306 181.241 87.7912 176.637 87.7912 171.463C87.7912 169.229 87.1087 167.095 85.9299 165.308C84.3664 162.938 81.9467 161.176 79.0803 160.506L78.7825 160.444L75.519 159.687V144.623L79.0803 143.804C84.1306 142.637 87.7912 138.034 87.7912 132.847C87.7912 130.613 87.1087 128.491 85.9299 126.692C84.3664 124.335 81.9467 122.56 79.0803 121.902L78.7825 121.828L75.519 121.071V106.057H309.174ZM87.6423 221.358C85.5949 223.368 83.0015 224.832 80.1102 225.502V232.277H304.583V110.648H80.1102V117.423C81.2518 117.684 82.3438 118.068 83.3737 118.565C85.7065 119.681 87.7167 121.356 89.2554 123.404C91.216 126.047 92.3824 129.31 92.3824 132.847C92.3824 137.178 90.6452 141.099 87.816 143.965C87.7912 143.99 87.7622 144.015 87.7292 144.04C87.6878 144.089 87.6423 144.139 87.5927 144.188C87.5596 144.221 87.5223 144.255 87.481 144.288C85.4584 146.223 82.927 147.626 80.1102 148.271V156.039C81.2518 156.299 82.3438 156.684 83.3737 157.18C85.7065 158.297 87.7167 159.96 89.2554 162.02C91.216 164.663 92.3824 167.926 92.3824 171.463C92.3824 175.781 90.6452 179.714 87.816 182.568C87.7912 182.601 87.7622 182.63 87.7292 182.655C87.6878 182.697 87.6464 182.738 87.6051 182.779C87.5637 182.821 87.5223 182.862 87.481 182.903C85.4584 184.827 82.927 186.229 80.1102 186.887V194.642C81.2518 194.903 82.3438 195.3 83.3737 195.784C85.7065 196.9 87.7167 198.576 89.2554 200.635C91.216 203.266 92.3824 206.542 92.3824 210.066C92.3824 214.471 90.5831 218.467 87.6671 221.333C87.6588 221.341 87.6506 221.35 87.6423 221.358Z" fill="#333333"/>
<path d="M373.997 257.405C373.997 258.671 372.967 259.701 371.701 259.701H58.3828C57.1171 259.701 56.0872 258.671 56.0872 257.405C56.0872 256.139 57.1171 255.109 58.3828 255.109H371.701C372.967 255.109 373.997 256.139 373.997 257.405Z" fill="#333333"/>
<path d="M48.9149 259.701H38.4544C37.1887 259.701 36.1588 258.671 36.1588 257.405C36.1588 256.139 37.1887 255.109 38.4544 255.109H48.9149C50.1806 255.109 51.2105 256.139 51.2105 257.405C51.2105 258.671 50.1806 259.701 48.9149 259.701Z" fill="#333333"/>
<path d="M100.374 248.446H89.913C88.6473 248.446 87.6174 247.428 87.6174 246.15C87.6174 244.885 88.6473 243.855 89.913 243.855H100.374C101.639 243.855 102.669 244.885 102.669 246.15C102.669 247.428 101.639 248.446 100.374 248.446Z" fill="#333333"/>
<path d="M80.4453 248.446H69.9848C68.7191 248.446 67.6892 247.428 67.6892 246.15C67.6892 244.885 68.7191 243.855 69.9848 243.855H80.4453C81.711 243.855 82.7409 244.885 82.7409 246.15C82.7409 247.428 81.711 248.446 80.4453 248.446Z" fill="#333333"/>
<path d="M340.158 248.446H329.71C328.445 248.446 327.415 247.428 327.415 246.15C327.415 244.885 328.445 243.855 329.71 243.855H340.158C341.436 243.855 342.454 244.885 342.454 246.15C342.454 247.428 341.436 248.446 340.158 248.446Z" fill="#333333"/>
<path d="M360.087 248.446H349.638C348.373 248.446 347.343 247.428 347.343 246.15C347.343 244.885 348.373 243.855 349.638 243.855H360.087C361.352 243.855 362.382 244.885 362.382 246.15C362.382 247.428 361.352 248.446 360.087 248.446Z" fill="#333333"/>
<path d="M391.629 259.701H381.169C379.903 259.701 378.873 258.671 378.873 257.405C378.873 256.139 379.903 255.109 381.169 255.109H391.629C392.895 255.109 393.925 256.139 393.925 257.405C393.925 258.671 392.895 259.701 391.629 259.701Z" fill="#333333"/>
</svg>
