<svg width="308" height="14" viewBox="0 0 308 14" fill="none" xmlns="http://www.w3.org/2000/svg">
<line y1="6.328" x2="139" y2="6.328" stroke="#34A853"/>
<path d="M148.368 12.8376V0.489585H150.708V5.51159H156.468V0.489585H158.808V12.8376H156.468V7.52759H150.708V12.8376H148.368ZM167.222 13.0536C165.938 13.0536 164.828 12.8256 163.892 12.3696C162.956 11.9016 162.236 11.1936 161.732 10.2456C161.24 9.29759 160.994 8.10359 160.994 6.66359C160.994 5.21159 161.24 4.01758 161.732 3.08158C162.236 2.13358 162.956 1.43158 163.892 0.975585C164.828 0.507585 165.938 0.273585 167.222 0.273585C168.518 0.273585 169.628 0.507585 170.552 0.975585C171.488 1.43158 172.202 2.13358 172.694 3.08158C173.198 4.01758 173.45 5.21159 173.45 6.66359C173.45 8.10359 173.198 9.29759 172.694 10.2456C172.202 11.1936 171.488 11.9016 170.552 12.3696C169.628 12.8256 168.518 13.0536 167.222 13.0536ZM167.222 11.0736C167.846 11.0736 168.392 10.9836 168.86 10.8036C169.34 10.6236 169.742 10.3596 170.066 10.0116C170.39 9.65159 170.636 9.21359 170.804 8.69759C170.972 8.16959 171.056 7.56359 171.056 6.87958V6.48359C171.056 5.78759 170.972 5.17559 170.804 4.64759C170.636 4.11959 170.39 3.68159 170.066 3.33359C169.742 2.97359 169.34 2.70359 168.86 2.52359C168.392 2.34359 167.846 2.25359 167.222 2.25359C166.598 2.25359 166.046 2.34359 165.566 2.52359C165.098 2.70359 164.702 2.97359 164.378 3.33359C164.054 3.68159 163.808 4.11959 163.64 4.64759C163.484 5.17559 163.406 5.78759 163.406 6.48359V6.87958C163.406 7.56359 163.484 8.16959 163.64 8.69759C163.808 9.21359 164.054 9.65159 164.378 10.0116C164.702 10.3596 165.098 10.6236 165.566 10.8036C166.046 10.9836 166.598 11.0736 167.222 11.0736ZM180.762 13.0536C179.682 13.0536 178.752 12.8796 177.972 12.5316C177.192 12.1836 176.592 11.6556 176.172 10.9476C175.764 10.2276 175.56 9.33359 175.56 8.26559V0.489585H177.9V8.19359C177.9 9.14159 178.146 9.86159 178.638 10.3536C179.142 10.8336 179.85 11.0736 180.762 11.0736C181.674 11.0736 182.382 10.8336 182.886 10.3536C183.402 9.86159 183.66 9.14159 183.66 8.19359V0.489585H186V8.26559C186 9.33359 185.79 10.2276 185.37 10.9476C184.95 11.6556 184.35 12.1836 183.57 12.5316C182.79 12.8796 181.854 13.0536 180.762 13.0536ZM193.265 13.0536C192.581 13.0536 191.927 12.9816 191.303 12.8376C190.679 12.6816 190.127 12.4476 189.647 12.1356C189.167 11.8116 188.789 11.4156 188.513 10.9476C188.237 10.4676 188.099 9.90359 188.099 9.25559C188.099 9.18359 188.099 9.11159 188.099 9.03959C188.111 8.96759 188.117 8.91359 188.117 8.87759H190.475C190.475 8.90159 190.469 8.94959 190.457 9.02159C190.457 9.08159 190.457 9.13559 190.457 9.18359C190.457 9.57959 190.571 9.92159 190.799 10.2096C191.027 10.4856 191.357 10.7016 191.789 10.8576C192.221 11.0016 192.731 11.0736 193.319 11.0736C193.715 11.0736 194.063 11.0496 194.363 11.0016C194.675 10.9536 194.939 10.8876 195.155 10.8036C195.383 10.7076 195.569 10.5996 195.713 10.4796C195.857 10.3476 195.959 10.2036 196.019 10.0476C196.091 9.89159 196.127 9.72359 196.127 9.54359C196.127 9.19559 196.019 8.90759 195.803 8.67959C195.587 8.45159 195.293 8.25959 194.921 8.10359C194.561 7.94759 194.147 7.80959 193.679 7.68959C193.223 7.55759 192.749 7.42559 192.257 7.29358C191.777 7.16159 191.303 7.00559 190.835 6.82559C190.379 6.63359 189.965 6.40559 189.593 6.14159C189.233 5.87759 188.945 5.54759 188.729 5.15159C188.513 4.74359 188.405 4.25759 188.405 3.69359C188.405 3.11758 188.525 2.61358 188.765 2.18159C189.017 1.74959 189.365 1.39559 189.809 1.11959C190.265 0.831585 190.793 0.621585 191.393 0.489585C191.993 0.345585 192.647 0.273585 193.355 0.273585C194.015 0.273585 194.633 0.345585 195.209 0.489585C195.797 0.621585 196.313 0.837585 196.757 1.13758C197.201 1.42558 197.549 1.79758 197.801 2.25359C198.053 2.69759 198.179 3.23159 198.179 3.85559V4.07159H195.857V3.89159C195.857 3.54359 195.749 3.24959 195.533 3.00959C195.329 2.76958 195.035 2.58358 194.651 2.45159C194.279 2.31959 193.841 2.25359 193.337 2.25359C192.797 2.25359 192.335 2.30759 191.951 2.41558C191.567 2.51158 191.273 2.66158 191.069 2.86559C190.865 3.05758 190.763 3.29758 190.763 3.58559C190.763 3.88559 190.871 4.13758 191.087 4.34158C191.303 4.54559 191.591 4.71959 191.951 4.86359C192.323 5.00759 192.737 5.13958 193.193 5.25958C193.661 5.37959 194.135 5.51159 194.615 5.65559C195.107 5.78759 195.581 5.94359 196.037 6.12358C196.505 6.30359 196.919 6.53159 197.279 6.80759C197.651 7.07159 197.945 7.40159 198.161 7.79759C198.377 8.19359 198.485 8.66759 198.485 9.21959C198.485 10.1436 198.257 10.8876 197.801 11.4516C197.357 12.0156 196.739 12.4236 195.947 12.6756C195.167 12.9276 194.273 13.0536 193.265 13.0536ZM200.663 12.8376V0.489585H210.293V2.48758H203.003V5.52959H209.501V7.52759H203.003V10.8396H210.401V12.8376H200.663ZM215.781 12.8376V2.50559H211.839V0.489585H222.081V2.50559H218.121V12.8376H215.781ZM223.901 12.8376V0.489585H226.241V5.51159H232.001V0.489585H234.341V12.8376H232.001V7.52759H226.241V12.8376H223.901ZM237.085 12.8376V0.489585H246.715V2.48758H239.425V5.52959H245.923V7.52759H239.425V10.8396H246.823V12.8376H237.085ZM249.179 12.8376V0.489585H255.371C256.283 0.489585 257.033 0.651585 257.621 0.975585C258.221 1.29958 258.671 1.75559 258.971 2.34359C259.271 2.93158 259.421 3.63358 259.421 4.44959C259.421 5.25359 259.265 5.95559 258.953 6.55559C258.641 7.15559 258.173 7.62358 257.549 7.95958C256.937 8.28359 256.169 8.44559 255.245 8.44559H251.519V12.8376H249.179ZM251.519 6.44759H255.173C255.773 6.44759 256.235 6.27359 256.559 5.92559C256.895 5.56559 257.063 5.07358 257.063 4.44959C257.063 4.02958 256.991 3.67558 256.847 3.38758C256.703 3.09958 256.493 2.87758 256.217 2.72158C255.941 2.56558 255.593 2.48758 255.173 2.48758H251.519V6.44759ZM259.063 12.8376L263.869 0.489585H266.821L271.645 12.8376H269.107L268.117 10.2096H262.465L261.475 12.8376H259.063ZM263.203 8.22959H267.361L266.119 4.88158C266.071 4.76158 266.011 4.61159 265.939 4.43159C265.879 4.23959 265.813 4.03559 265.741 3.81958C265.669 3.59158 265.597 3.36358 265.525 3.13558C265.453 2.90758 265.387 2.70359 265.327 2.52359H265.237C265.165 2.76358 265.075 3.03958 264.967 3.35159C264.871 3.66358 264.775 3.95758 264.679 4.23359C264.583 4.50959 264.505 4.72559 264.445 4.88158L263.203 8.22959ZM273.102 12.8376V0.489585H279.6C280.512 0.489585 281.268 0.645585 281.868 0.957585C282.468 1.26959 282.918 1.71359 283.218 2.28958C283.518 2.86558 283.668 3.54358 283.668 4.32359C283.668 5.12759 283.488 5.84159 283.128 6.46559C282.768 7.07759 282.24 7.53959 281.544 7.85159L284.1 12.8376H281.544L279.276 8.24758H275.442V12.8376H273.102ZM275.442 6.28559H279.42C280.02 6.28559 280.482 6.11159 280.806 5.76359C281.13 5.41559 281.292 4.93559 281.292 4.32359C281.292 3.92758 281.22 3.59758 281.076 3.33359C280.932 3.05759 280.722 2.84759 280.446 2.70359C280.17 2.55958 279.828 2.48758 279.42 2.48758H275.442V6.28559ZM288.677 12.8376V2.50559H284.735V0.489585H294.977V2.50559H291.017V12.8376H288.677ZM300.01 12.8376V7.81559L295.258 0.489585H297.958L301.216 5.70958H301.306L304.528 0.489585H307.084L302.35 7.81559V12.8376H300.01Z" fill="#34A853"/>
</svg>