<svg width="18" height="19" viewBox="0 0 18 19" fill="none" xmlns="http://www.w3.org/2000/svg">
<path d="M10.2027 13.1218C10.0187 13.1389 9.83398 13.0975 9.675 13.0034C9.55884 12.8843 9.50316 12.719 9.52365 12.5541C9.52794 12.4168 9.54436 12.2801 9.57273 12.1456C9.60019 11.9914 9.63566 11.8387 9.67908 11.6882L10.1618 10.0299C10.2116 9.86624 10.2445 9.69789 10.26 9.52752C10.26 9.34373 10.2845 9.21709 10.2845 9.14359C10.2948 8.816 10.1547 8.50164 9.90408 8.28995C9.59579 8.05366 9.21189 7.93751 8.82408 7.9632C8.54617 7.96738 8.2704 8.0128 8.00589 8.09799C7.7168 8.18785 7.4127 8.29539 7.09362 8.42067L6.95454 8.95981C7.04862 8.92713 7.16319 8.89038 7.29408 8.84952C7.41895 8.8126 7.5484 8.79333 7.67862 8.79234C7.86129 8.77258 8.04516 8.81737 8.19816 8.91895C8.30208 9.04275 8.35084 9.20358 8.33316 9.36416C8.3327 9.50151 8.31762 9.63843 8.28816 9.77259C8.2595 9.91555 8.2227 10.0667 8.1777 10.2259L7.69089 11.8924C7.65165 12.0473 7.62026 12.204 7.59681 12.3621C7.57768 12.4974 7.56812 12.6339 7.56816 12.7705C7.56615 13.1003 7.71722 13.4125 7.97723 13.616C8.29027 13.8559 8.67966 13.9749 9.07358 13.9509C9.35096 13.9566 9.6274 13.9166 9.89177 13.8324C10.1236 13.7534 10.4331 13.6405 10.8204 13.4934L10.9513 12.9788C10.8464 13.0222 10.7384 13.0577 10.6282 13.085C10.4887 13.1168 10.3456 13.1291 10.2027 13.1218Z" fill="#7D7D7D"/>
<path d="M10.7141 5.25936C10.4914 5.05522 10.1981 4.94539 9.89589 4.95304C9.59386 4.94623 9.3008 5.05595 9.07769 5.25936C8.66876 5.61142 8.62309 6.22781 8.97574 6.63613C9.00717 6.67253 9.04124 6.70654 9.07769 6.73792C9.54359 7.15397 10.2482 7.15397 10.714 6.73792C11.123 6.38239 11.1658 5.76322 10.8097 5.35494C10.7801 5.32093 10.7481 5.28898 10.7141 5.25936Z" fill="#7D7D7D"/>
<path d="M9 0.460205C4.02943 0.460205 0 4.48322 0 9.44587C0 14.4085 4.02943 18.4315 9 18.4315C13.9706 18.4315 18 14.4085 18 9.44587C18 4.48322 13.9706 0.460205 9 0.460205ZM9 17.6147C4.4813 17.6147 0.818191 13.9574 0.818191 9.44587C0.818191 4.93437 4.4813 1.27709 9 1.27709C13.5187 1.27709 17.1818 4.93437 17.1818 9.44587C17.1818 13.9574 13.5187 17.6147 9 17.6147Z" fill="#7D7D7D"/>
</svg>