<svg width="19" height="18" viewBox="0 0 19 18" fill="none" xmlns="http://www.w3.org/2000/svg">
<path d="M9.39985 6.04316C7.77172 6.04316 6.44304 7.37184 6.44304 8.99997C6.44304 10.6281 7.77172 11.9568 9.39985 11.9568C11.028 11.9568 12.3567 10.6281 12.3567 8.99997C12.3567 7.37184 11.028 6.04316 9.39985 6.04316ZM18.2681 8.99997C18.2681 7.77554 18.2792 6.56221 18.2104 5.34C18.1416 3.92037 17.8178 2.66045 16.7797 1.62235C15.7394 0.58203 14.4817 0.260396 13.062 0.191633C11.8376 0.12287 10.6243 0.133961 9.40207 0.133961C8.17764 0.133961 6.96431 0.12287 5.7421 0.191633C4.32247 0.260396 3.06255 0.584248 2.02445 1.62235C0.98413 2.66267 0.662496 3.92037 0.593732 5.34C0.524969 6.56442 0.53606 7.77776 0.53606 8.99997C0.53606 10.2222 0.524969 11.4377 0.593732 12.6599C0.662496 14.0796 0.986348 15.3395 2.02445 16.3776C3.06477 17.4179 4.32247 17.7395 5.7421 17.8083C6.96653 17.8771 8.17986 17.866 9.40207 17.866C10.6265 17.866 11.8398 17.8771 13.062 17.8083C14.4817 17.7395 15.7416 17.4157 16.7797 16.3776C17.82 15.3373 18.1416 14.0796 18.2104 12.6599C18.2814 11.4377 18.2681 10.2244 18.2681 8.99997ZM9.39985 13.5494C6.88223 13.5494 4.85039 11.5176 4.85039 8.99997C4.85039 6.48235 6.88223 4.45051 9.39985 4.45051C11.9175 4.45051 13.9493 6.48235 13.9493 8.99997C13.9493 11.5176 11.9175 13.5494 9.39985 13.5494ZM14.1356 5.32669C13.5478 5.32669 13.0731 4.852 13.0731 4.26419C13.0731 3.67637 13.5478 3.20168 14.1356 3.20168C14.7235 3.20168 15.1981 3.67637 15.1981 4.26419C15.1983 4.40377 15.171 4.54201 15.1176 4.671C15.0643 4.79998 14.986 4.91718 14.8873 5.01588C14.7886 5.11458 14.6714 5.19283 14.5424 5.24617C14.4135 5.2995 14.2752 5.32686 14.1356 5.32669Z" fill="white"/>
</svg>