<svg width="20" height="18" viewBox="0 0 20 18" fill="none" xmlns="http://www.w3.org/2000/svg">
<path d="M0.601807 6.04579H5.23633V17.8672H0.601807V6.04579Z" fill="white"/>
<path d="M17.8603 7.36915C17.0079 6.48697 15.8805 6.04579 14.4787 6.04579C13.9623 6.04579 13.4928 6.10602 13.0705 6.22657C12.6484 6.34703 12.2918 6.51604 12.0007 6.73369C11.7098 6.95133 11.4781 7.15338 11.306 7.33983C11.1424 7.51693 10.9825 7.72322 10.8264 7.95659V6.31375H6.78052L6.79292 6.87342C6.80123 7.2466 6.80533 8.39682 6.80533 10.3242C6.80533 12.2518 6.79714 14.7661 6.78069 17.8672H10.8264V11.42C10.8264 11.0237 10.8712 10.709 10.9616 10.4756C11.1339 10.0791 11.3939 9.74704 11.7425 9.47901C12.0911 9.21065 12.5234 9.07659 13.04 9.07659C13.7448 9.07659 14.2635 9.30779 14.5956 9.77024C14.9276 10.2326 15.0936 10.8719 15.0936 11.6881V17.8668H19.1393V11.2453C19.139 9.54304 18.713 8.25104 17.8603 7.36915Z" fill="white"/>
<path d="M2.93161 0.133301C2.23863 0.133301 1.67713 0.343012 1.24699 0.762025C0.81688 1.18113 0.601959 1.71024 0.601959 2.34986C0.601959 2.98054 0.810694 3.50783 1.22821 3.93116C1.64559 4.35453 2.19678 4.56633 2.88146 4.56633H2.90651C3.608 4.56633 4.1738 4.35471 4.60377 3.93116C5.03375 3.50783 5.24454 2.98072 5.23625 2.34986C5.22792 1.71029 5.01484 1.18113 4.59745 0.762025C4.18012 0.34283 3.62463 0.133301 2.93161 0.133301Z" fill="white"/>
</svg>
