<svg width="15" height="15" viewBox="0 0 15 15" fill="none" xmlns="http://www.w3.org/2000/svg">
<path d="M8.72701 6.85165C8.57895 6.85165 8.43088 6.79526 8.3181 6.68219C7.41614 5.78022 5.94852 5.77993 5.04627 6.68219C4.82071 6.90804 4.45402 6.90804 4.22846 6.68219C4.0026 6.45633 4.0026 6.09023 4.22846 5.86437C5.58155 4.51099 7.78311 4.51128 9.13592 5.86437C9.36177 6.09023 9.36177 6.45633 9.13592 6.68219C9.02314 6.79526 8.87478 6.85165 8.72701 6.85165Z" fill="black"/>
<path d="M8.3181 10.151C7.42944 10.151 6.54078 9.81261 5.86437 9.13621C5.63852 8.91035 5.63852 8.54425 5.86437 8.31839C6.08994 8.09254 6.45662 8.09254 6.68219 8.31839C7.58415 9.22036 9.05176 9.22065 9.95402 8.31839C10.1796 8.09254 10.5463 8.09254 10.7718 8.31839C10.9977 8.54425 10.9977 8.91035 10.7718 9.13621C10.0951 9.81261 9.20648 10.151 8.3181 10.151Z" fill="black"/>
<path d="M10.3626 9.30538C10.2146 9.30538 10.0665 9.24899 9.95373 9.13592C9.72788 8.91006 9.72788 8.54395 9.95373 8.3181L13.1845 5.08733C13.4101 4.86148 13.7768 4.86148 14.0023 5.08733C14.2282 5.31319 14.2282 5.67929 14.0023 5.90515L10.7715 9.13592C10.6588 9.24899 10.5107 9.30538 10.3626 9.30538Z" fill="black"/>
<path d="M5.49624 14.1718C5.34818 14.1718 5.20012 14.1154 5.08733 14.0023C4.86148 13.7765 4.86148 13.4104 5.08733 13.1845L6.89329 11.3785C7.11885 11.1527 7.48554 11.1527 7.7111 11.3785C7.93696 11.6044 7.93696 11.9705 7.7111 12.1964L5.90515 14.0023C5.79237 14.1154 5.6443 14.1718 5.49624 14.1718Z" fill="black"/>
<path d="M1.40659 10.0821C1.25853 10.0821 1.11047 10.0257 0.997687 9.91267C0.771834 9.68681 0.771834 9.32071 0.997687 9.09485L4.22846 5.86437C4.45431 5.63852 4.82071 5.63852 5.04627 5.86437C5.27212 6.09023 5.27212 6.45633 5.04627 6.68219L1.8155 9.91267C1.70243 10.0254 1.55437 10.0821 1.40659 10.0821Z" fill="black"/>
<path d="M7.6978 3.79121C7.54974 3.79121 7.40197 3.73482 7.2889 3.62204C7.06304 3.39618 7.06304 3.03008 7.2889 2.80393L9.09485 0.997687C9.32071 0.771833 9.68681 0.771833 9.91296 0.997687C10.1388 1.22354 10.1388 1.58965 9.91296 1.81579L8.107 3.62204C7.99393 3.73453 7.84557 3.79121 7.6978 3.79121Z" fill="black"/>
<path d="M3.45142 15C2.55697 15 1.66252 14.6674 0.997687 14.0023C-0.332562 12.6721 -0.332562 10.4248 0.997687 9.09456C1.22325 8.86871 1.58994 8.86871 1.8155 9.09456C2.04135 9.32042 2.04135 9.68652 1.8155 9.91238C0.928861 10.799 0.928861 12.2976 1.8155 13.1842C2.70214 14.0708 4.20069 14.0708 5.08733 13.1842C5.3129 12.9584 5.67958 12.9584 5.90515 13.1842C6.131 13.4101 6.131 13.7762 5.90515 14.002C5.24031 14.6674 4.34586 15 3.45142 15Z" fill="black"/>
<path d="M13.5934 6.07461C13.4453 6.07461 13.2973 6.01822 13.1845 5.90515C12.9586 5.67929 12.9586 5.31319 13.1845 5.08733C14.0711 4.20069 14.0711 2.70214 13.1845 1.8155C12.2979 0.928861 10.7993 0.928861 9.91267 1.8155C9.6871 2.04135 9.32042 2.04135 9.09485 1.8155C8.869 1.58965 8.869 1.22354 9.09485 0.997687C10.4251 -0.332562 12.6724 -0.332562 14.0026 0.997687C15.3329 2.32794 15.3329 4.57519 14.0026 5.90544C13.8895 6.01822 13.7415 6.07461 13.5934 6.07461Z" fill="black"/>
</svg>