<svg width="17" height="15" viewBox="0 0 17 15" fill="none" xmlns="http://www.w3.org/2000/svg">
    <path d="M16.8794 2.95436L10.9476 8.42989C10.2862 9.03888 9.39011 9.38088 8.45591 9.38088C7.52171 9.38088 6.62565 9.03888 5.96423 8.42989L0.0324143 2.95436C0.0225491 3.05714 0 3.15015 0 3.25227V11.0577C0.0011189 11.92 0.372681 12.7466 1.03319 13.3563C1.69369 13.966 2.5892 14.309 3.5233 14.31H13.3885C14.3226 14.309 15.2181 13.966 15.8786 13.3563C16.5391 12.7466 16.9107 11.92 16.9118 11.0577V3.25227C16.9118 3.15015 16.8893 3.05714 16.8794 2.95436Z" fill="#34A853"/>
    <path d="M9.95119 7.51015L16.3876 1.56825C16.0758 1.09102 15.636 0.696011 15.1107 0.421319C14.5854 0.146628 13.9923 0.0015225 13.3885 0H3.5233C2.91956 0.0015225 2.32643 0.146628 1.80113 0.421319C1.27582 0.696011 0.836063 1.09102 0.524266 1.56825L6.96062 7.51015C7.35775 7.87526 7.89541 8.08025 8.45591 8.08025C9.01641 8.08025 9.55407 7.87526 9.95119 7.51015Z" fill="#34A853"/>
</svg>