<svg width="17" height="9" viewBox="0 0 17 9" fill="none" xmlns="http://www.w3.org/2000/svg">
<path d="M16.1858 2.999L13.4765 0.210923C13.4114 0.144089 13.334 0.0910406 13.2487 0.0548394C13.1634 0.0186381 13.0718 0 12.9794 0C12.887 0 12.7955 0.0186381 12.7102 0.0548394C12.6249 0.0910406 12.5475 0.144089 12.4824 0.210923C12.352 0.344524 12.2788 0.525252 12.2788 0.713633C12.2788 0.902014 12.352 1.08274 12.4824 1.21634L14.9746 3.77624H0.700077C0.514405 3.77624 0.336338 3.85137 0.205048 3.98509C0.0737579 4.11882 0 4.30019 0 4.4893C0 4.67842 0.0737579 4.85979 0.205048 4.99352C0.336338 5.12724 0.514405 5.20237 0.700077 5.20237H15.0167L12.4824 7.77653C12.4168 7.84282 12.3647 7.92168 12.3291 8.00857C12.2936 8.09547 12.2753 8.18867 12.2753 8.2828C12.2753 8.37694 12.2936 8.47014 12.3291 8.55703C12.3647 8.64392 12.4168 8.72279 12.4824 8.78908C12.5475 8.85591 12.6249 8.90896 12.7102 8.94516C12.7955 8.98136 12.887 9 12.9794 9C13.0718 9 13.1634 8.98136 13.2487 8.94516C13.334 8.90896 13.4114 8.85591 13.4765 8.78908L16.1858 6.02239C16.5791 5.62129 16.8 5.07758 16.8 4.5107C16.8 3.94381 16.5791 3.4001 16.1858 2.999Z" fill="black"/>
</svg>
