<svg width="16" height="15" viewBox="0 0 16 15" fill="none" xmlns="http://www.w3.org/2000/svg">
<path d="M5.83331 11.4861V14.5109C5.83331 14.7222 5.97198 14.9093 6.17731 14.9759C6.22865 14.9922 6.28131 15 6.33331 15C6.48931 15 6.63998 14.9283 6.73598 14.8004L8.54464 12.3926L5.83331 11.4861Z" fill="white"/>
<path d="M15.79 0.09071C15.6366 -0.0155944 15.4353 -0.0299422 15.2686 0.0554926L0.268695 7.71854C0.0913627 7.80919 -0.0133036 7.99441 0.00136298 8.18941C0.0166963 8.38506 0.149363 8.55202 0.338029 8.61528L4.50801 10.0096L13.3887 2.58136L6.51667 10.6807L13.5053 13.0174C13.5573 13.0344 13.612 13.0435 13.6667 13.0435C13.7573 13.0435 13.8473 13.0194 13.9267 12.9724C14.0533 12.8968 14.1393 12.7696 14.1613 12.6268L15.9946 0.56158C16.022 0.378971 15.9433 0.197666 15.79 0.09071Z" fill="white"/>
</svg>